<svg xmlns="http://www.w3.org/2000/svg" width="366" height="123" viewBox="0 0 366 123" fill="none"><g clip-path="url(#clip0_1_2)"><g clip-path="url(#clip1_1_2)"><path d="M37.6826 46.5062C39.0931 44.2036 40.6299 42.0741 42.2706 40.1075C40.5912 42.0822 39.0493 44.2127 37.6826 46.5062Z" fill="#DE3A3A"></path><path d="M37.6826 46.5062C36.2996 48.7753 35.1407 51.1217 34.1803 53.516C35.1498 51.1584 36.3108 48.817 37.6826 46.5062Z" fill="#DE3A3A"></path><path d="M135.983 102.592C140.199 102.667 135.336 98.9845 126.295 94.0197C131.261 83.5921 132.75 71.4789 129.546 59.6652C120.881 27.9251 87.6881 15.203 61.531 25.929C55.1699 18.4996 50.1858 11.5856 48.1245 6.36717C48.5461 7.48234 52.1065 16.7194 57.662 27.7082C53.5496 29.8347 49.6705 32.5793 46.1488 35.9615L45.0061 34.2475L31.3653 24.3545L41.3245 35.9055L43.9194 38.2193C43.3573 38.8283 42.8043 39.4557 42.2706 40.1024C42.8145 39.4649 43.3664 38.8467 43.9378 38.2377L53.1565 46.5011L46.1956 36.0277C49.699 32.7952 53.6342 30.1259 57.8504 28.0738C64.4742 41.133 73.8519 56.554 84.0727 63.7675C77.5986 59.486 61.0075 47.766 59.1061 43.7096C59.4432 44.6089 64.6993 57.9869 77.731 65.8756C76.9906 65.5853 65.0456 60.8171 60.2488 56.4134C60.2488 56.4134 64.7268 64.3113 75.0414 69.8759C78.058 71.4963 79.0509 72.4526 78.892 72.9577C71.2009 70.2976 63.1248 68.9197 55.4897 66.0996C47.7884 63.2613 40.688 58.7731 33.9236 54.1739C34.0082 53.958 34.0927 53.7431 34.1762 53.5181C34.0917 53.7431 33.998 53.9489 33.9145 54.1739C22.6874 46.547 11.2006 37.3221 1.92074 27.1756L0 25.0196C0 25.0196 -3.4813e-06 25.0287 0.00916231 25.0379C0.0845255 25.1693 0.609015 26.0869 1.52661 27.5585C2.88621 29.7613 5.10738 33.1843 7.94063 36.9585C8.88471 38.2163 9.89703 39.5137 10.9684 40.8183C11.5041 41.4701 12.054 42.124 12.6172 42.7757C13.7446 44.0793 14.926 45.3727 16.1522 46.6254C16.7653 47.2517 17.3895 47.8679 18.024 48.4697C19.2767 49.6582 20.5701 50.7897 21.892 51.8356L7.18497 41.6484C7.19414 41.6575 7.19413 41.6575 7.20329 41.6667C7.81231 42.791 8.46817 43.8868 9.15154 44.9643C14.7254 53.7706 22.3513 60.6287 30.7268 66.6995C29.9772 72.9862 30.4834 79.1976 32.0294 85.0708L22.0519 79.9278L28.1227 85.577L32.8634 87.8816C40.3957 110.918 64.2858 127.829 92.2222 121.599C104.626 118.807 114.95 111.378 121.854 101.578C141.557 106.89 140.441 111.659 140.132 112.417C143.234 107.304 135.983 102.592 135.983 102.592ZM23.2608 53.0852C24.4248 53.789 25.3923 54.3634 26.0431 54.7463C25.3933 54.3644 24.4248 53.79 23.2608 53.0852ZM55.0019 113.291C44.8931 107.567 37.6796 98.5832 33.8758 88.3715L42.57 92.6061L34.2505 86.2165L32.9011 85.523C31.0741 79.5275 30.3999 73.1756 30.9712 66.8798C52.2002 82.1693 73.0269 88.5681 73.0269 88.5681C60.4077 88.3247 41.8296 78.2443 41.2491 77.9347C48.8751 88.3053 78.835 96.6716 104.271 98.2736C109.34 98.5924 113.799 99.3511 117.705 100.353C103.652 119.418 75.7339 125.592 55.0019 113.291ZM101.853 82.1031C102.518 82.1215 103.212 82.1591 103.942 82.206C116.084 82.9464 120.684 78.0182 114.556 75.3581C110.04 73.3997 81.2507 53.7543 61.8864 26.3425C75.6484 21.1424 91.6315 22.1731 104.831 30.6239C125.395 43.2055 132.965 70.7589 122.687 92.0816C116.684 88.9235 109.386 85.4293 101.853 82.1031Z" fill="#DE3A3A"></path><path d="M55.0885 57.2037L45.1639 50.9435L52.7634 59.3332L59.1082 62.8427L55.0885 57.2037Z" fill="#DE3A3A"></path><path d="M37.6826 15.2458L34.1803 8.6464L26.9434 0L30.3602 7.95897L37.6826 15.2458Z" fill="#DE3A3A"></path><path d="M18.4039 25.3791L13.3841 16.2683L2.22932 5.11349L7.49864 14.4565L18.4039 25.3791Z" fill="#DE3A3A"></path><path d="M2.22932 58.6499L9.03137 64.904L20.6098 70.5206L13.2894 64.4804L2.22932 58.6499Z" fill="#DE3A3A"></path><path d="M46.1233 88.9683L52.6595 93.6979L58.1488 95.1929L53.1575 91.8678L46.1233 88.9683Z" fill="#DE3A3A"></path></g><g clip-path="url(#clip2_1_2)"><path d="M164.262 93.663H166.582L174.652 113.463L182.692 93.663H185.012L175.672 116.223H173.642L164.262 93.663ZM199.382 114.253H212.312V116.223H197.152V93.663H212.032V95.633H199.382V103.763H210.412V105.643H199.382V114.253ZM242.222 116.223L227.632 97.763V116.223H225.412V93.663H227.252L242.062 112.473V93.693H244.282V116.223H242.222ZM274.852 93.663V95.633H266.812V116.223H264.592V95.633H256.552V93.663H274.852ZM296.302 116.383C294.522 116.383 293.019 116.066 291.792 115.433C290.565 114.793 289.592 113.94 288.872 112.873C288.152 111.8 287.625 110.586 287.292 109.233C286.965 107.88 286.802 106.483 286.802 105.043V93.663H288.992V105.043C288.992 106.203 289.115 107.346 289.362 108.473C289.609 109.593 290.005 110.6 290.552 111.493C291.105 112.38 291.849 113.083 292.782 113.603C293.709 114.123 294.872 114.383 296.272 114.383C297.712 114.383 298.905 114.113 299.852 113.573C300.792 113.033 301.532 112.316 302.072 111.423C302.612 110.536 302.999 109.536 303.232 108.423C303.465 107.31 303.582 106.183 303.582 105.043V93.663H305.812V105.043C305.812 106.543 305.642 107.983 305.302 109.363C304.962 110.736 304.415 111.943 303.662 112.983C302.909 114.023 301.929 114.85 300.722 115.463C299.515 116.076 298.042 116.383 296.302 116.383ZM322.242 116.223H320.012V93.663H329.542C330.522 93.663 331.412 93.863 332.212 94.263C333.019 94.6697 333.725 95.2163 334.332 95.903C334.932 96.5897 335.399 97.353 335.732 98.193C336.059 99.0263 336.222 99.8797 336.222 100.753C336.222 101.833 336.015 102.85 335.602 103.803C335.189 104.756 334.605 105.56 333.852 106.213C333.099 106.873 332.215 107.306 331.202 107.513L336.732 116.223H334.222L328.912 107.903H322.242V116.223ZM322.242 95.633V105.933H329.612C330.499 105.933 331.272 105.686 331.932 105.193C332.585 104.706 333.092 104.066 333.452 103.273C333.812 102.48 333.992 101.64 333.992 100.753C333.992 99.8397 333.785 98.9963 333.372 98.223C332.959 97.4497 332.409 96.823 331.722 96.343C331.035 95.8697 330.269 95.633 329.422 95.633H322.242ZM351.882 114.253H364.822V116.223H349.662V93.663H364.532V95.633H351.882V103.763H362.912V105.643H351.882V114.253Z" fill="#545454"></path></g><g clip-path="url(#clip3_1_2)"><path d="M170.752 80.4518H165.262V37.1318H193.872V42.0118H170.752V56.4718H190.212V61.0518H170.752V80.4518ZM214.252 75.5718H238.172V80.4518H208.762V37.1318H237.622V42.0118H214.252V56.0518H234.572V60.6218H214.252V75.5718ZM285.212 80.4518L259.102 47.2618V80.4518H253.602V37.1318H258.242L284.722 71.0018V37.1918H290.212V80.4518H285.212ZM314.012 80.4518H308.522V37.1318H314.012V80.4518ZM327.312 37.1318H333.532L346.592 55.0718L359.652 37.1318H365.812L349.642 59.1018L365.322 80.4518H359.162L346.592 63.1318L334.022 80.4518H327.802L343.482 59.1018L327.312 37.1318Z" fill="black"></path></g></g><defs><clipPath id="clip0_1_2"><rect width="366" height="123" fill="white"></rect></clipPath><clipPath id="clip1_1_2"><rect width="140.904" height="122.902" fill="white"></rect></clipPath><clipPath id="clip2_1_2"><rect width="200.56" height="22.72" fill="white" transform="translate(164.262 93.663)"></rect></clipPath><clipPath id="clip3_1_2"><rect width="200.55" height="43.32" fill="white" transform="translate(165.262 37.1318)"></rect></clipPath></defs></svg>