<svg xmlns="http://www.w3.org/2000/svg" width="77" height="93" viewBox="0 0 77 93" fill="none"><path d="M54.6016 71.3483H53.5508V68.0671C53.5508 66.9968 53.0508 66.0476 52.2813 65.4148C52.4259 62.446 53.6719 59.6648 55.7774 57.7156C61.168 52.7312 64.2618 45.6686 64.2618 38.3366C64.5157 22.9186 50.1368 9.98159 34.7738 12.0356C22.8168 13.3559 13.0438 22.9766 11.5358 34.9146C10.4655 43.4849 13.4342 51.7466 19.6725 57.5866C21.8522 59.6335 23.1452 62.4577 23.2936 65.4108C22.5241 66.0436 22.0241 66.9928 22.0241 68.0631V71.3443H20.9733C20.11 71.3443 19.4108 72.0435 19.4108 72.9068C19.4108 73.7701 20.11 74.4693 20.9733 74.4693H22.0241V78.5435C22.0241 80.313 23.3639 81.7544 25.0788 81.9576C25.8288 87.7193 30.7546 92.1846 36.7198 92.1846C43.5479 92.8174 49.5288 88.8213 50.4928 81.9576C52.2076 81.7545 53.5475 80.3131 53.5475 78.5435V74.4693H54.5983C56.6413 74.4341 56.6608 71.3834 54.5983 71.3443L54.6016 71.3483ZM14.6406 35.3093C15.9687 24.7893 24.582 16.3133 35.1206 15.1493C57.3476 12.6259 70.1286 40.1573 53.6556 55.4263C51.1048 57.7896 49.5267 61.0825 49.1986 64.6177H43.4759V48.8407C52.2962 46.1727 56.7689 38.0317 56.9879 37.6217C57.2692 37.0944 57.2262 36.4498 56.8707 35.9655C56.5153 35.4811 48.0777 24.0745 37.7927 24.0745C25.2147 24.0745 18.8667 35.6565 18.6047 36.1485C18.3586 36.6055 18.3586 37.1563 18.6008 37.6173C18.8196 38.0313 23.2688 46.1837 32.1168 48.8443V64.6173H26.3824C26.0426 61.0978 24.4254 57.7657 21.8121 55.3165C16.3082 50.1681 13.6949 42.8755 14.6363 35.3125L14.6406 35.3093ZM35.2426 64.6143V49.5203C36.8715 49.7469 38.7231 49.7469 40.352 49.5203V64.6183H35.2426V64.6143ZM37.7973 46.5673C28.7621 46.5673 23.3363 39.2626 21.8093 36.8837C23.3484 34.5048 28.8093 27.1923 37.7973 27.1923C45.0551 27.1923 51.6803 34.5165 53.7113 36.9931C52.0824 39.4814 46.6644 46.5673 37.7973 46.5673ZM25.1603 68.0673C25.1603 67.8876 25.3088 67.7392 25.4885 67.7392H50.0974C50.2771 67.7392 50.4256 67.8876 50.4256 68.0673V71.3485H25.1556V68.0673H25.1603ZM38.8593 89.0633H36.7265C32.5038 89.0633 28.9804 86.0125 28.246 82.0008H47.344C46.6057 86.0125 43.0823 89.0633 38.8635 89.0633H38.8593ZM50.4253 78.5473C50.4449 79.0668 49.48 78.8246 49.0425 78.8754H25.4835C25.3038 78.8754 25.1554 78.727 25.1554 78.5473V74.4731H50.4254L50.4253 78.5473Z" fill="#016DF0"></path><path d="M37.7969 29.8906C28.5586 30.1836 28.5586 43.5786 37.7969 43.8706C47.0352 43.5777 47.0313 30.1826 37.7969 29.8906ZM37.7969 40.7456C32.6992 40.6128 32.6992 33.1479 37.7969 33.0151C42.8946 33.1479 42.8907 40.6128 37.7969 40.7456Z" fill="#016DF0"></path><path d="M37.7734 7.8242C38.6367 7.8242 39.3359 7.12498 39.3359 6.2617V1.5625C39.3359 0.69922 38.6367 0 37.7734 0C36.9102 0 36.2109 0.69922 36.2109 1.5625V6.2617C36.2109 7.12498 36.9102 7.8242 37.7734 7.8242Z" fill="#016DF0"></path><path d="M20.5582 11.452C21.5973 13.2176 24.277 11.6591 23.2652 9.88952L20.9175 5.81922C19.8589 4.05752 17.2144 5.58484 18.2105 7.38172L20.5582 11.452Z" fill="#016DF0"></path><path d="M5.52718 21.4195C6.06624 21.6461 9.81628 24.1266 10.3749 23.9782C11.9101 24.0367 12.5429 21.7985 11.1561 21.0602L7.08583 18.7124C5.28893 17.7164 3.76163 20.3609 5.52333 21.4195L5.52718 21.4195Z" fill="#016DF0"></path><path d="M7.8242 38.3594C7.8242 37.4961 7.12498 36.7969 6.2617 36.7969H1.5625C0.69922 36.7969 0 37.4961 0 38.3594C0 39.2227 0.69922 39.9219 1.5625 39.9219H6.2617C7.12498 39.9219 7.8242 39.2227 7.8242 38.3594Z" fill="#016DF0"></path><path d="M9.88675 52.8685L5.81645 55.2162C4.05085 56.2787 5.58989 58.9193 7.37895 57.9232L11.4492 55.5755C13.2109 54.5208 11.6797 51.8724 9.88675 52.8685Z" fill="#016DF0"></path><path d="M70.6054 54.7164L66.535 52.3687C64.7381 51.3726 63.2108 54.0171 64.9725 55.0757C65.5116 55.3023 69.2616 57.7827 69.8202 57.6343C71.3554 57.6929 71.9882 55.4546 70.6015 54.7163L70.6054 54.7164Z" fill="#016DF0"></path><path d="M74.5708 36.2109H69.8716C67.8208 36.2461 67.8169 39.3007 69.8716 39.3359H74.5708C76.6216 39.3008 76.6255 36.2461 74.5708 36.2109Z" fill="#016DF0"></path><path d="M65.4687 23.4713C66.0078 23.6315 69.7968 21.1275 70.3164 20.9127C72.0781 19.858 70.5469 17.2057 68.7539 18.2057L64.6836 20.5534C63.3008 21.2878 63.9297 23.53 65.4649 23.4675L65.4687 23.4713Z" fill="#016DF0"></path><path d="M52.9375 11.7341C53.6718 12.1599 54.6367 11.9177 55.0703 11.1638L57.418 7.09347C57.8476 6.34738 57.5937 5.39037 56.8476 4.96067C56.0976 4.52708 55.1445 4.78489 54.7148 5.53098L52.3671 9.60128C51.9375 10.3474 52.1914 11.3044 52.9375 11.7341Z" fill="#016DF0"></path></svg>