<svg xmlns="http://www.w3.org/2000/svg" width="91" height="88" viewBox="0 0 91 88" fill="none"><path d="M77.6401 23.4177C79.5815 21.695 80.812 19.1833 80.812 16.3904C80.812 11.2107 76.5972 6.99983 71.4214 6.99983C66.2417 6.99983 62.0308 11.2146 62.0308 16.3904C62.0308 19.1834 63.2574 21.6951 65.1988 23.4177C63.8668 23.8904 62.5855 24.5115 61.3824 25.281C58.4683 27.1482 56.1324 29.7771 54.6285 32.8865C54.1949 33.7811 54.5699 34.8592 55.4683 35.2927C56.3628 35.7263 57.441 35.3513 57.8745 34.4529C60.3706 29.2888 65.6909 25.9529 71.4215 25.9529C79.1051 25.9529 85.4605 31.742 86.3515 39.1909H70.6995C69.7034 39.1909 68.8987 39.9956 68.8987 40.9917C68.8987 41.9878 69.7034 42.7925 70.6995 42.7925H88.2615C89.2576 42.7925 90.0623 41.9878 90.0623 40.9917C90.0623 32.894 84.8709 25.9877 77.6403 23.4217L77.6401 23.4177ZM71.4174 22.1794C68.226 22.1794 65.6283 19.5817 65.6283 16.3903C65.6283 13.1989 68.226 10.6012 71.4174 10.6012C74.6088 10.6012 77.2065 13.1989 77.2065 16.3903C77.2065 19.5817 74.6088 22.1794 71.4174 22.1794ZM32.6984 16.3903C32.6984 15.7966 32.9913 15.2419 33.4796 14.9059L38.6749 11.3395C39.4952 10.777 40.6163 10.9841 41.1788 11.8044C41.7413 12.6247 41.5343 13.7458 40.714 14.3083L40.3077 14.5856H55.5577C56.5538 14.5856 57.3585 15.3903 57.3585 16.3864C57.3585 17.3825 56.5538 18.1872 55.5577 18.1872H40.3077L40.714 18.4645C41.5343 19.027 41.7413 20.1481 41.1788 20.9684C40.8312 21.4763 40.2647 21.7497 39.6905 21.7497C39.3389 21.7497 38.9835 21.6481 38.671 21.4333L33.4757 17.8669C32.9874 17.5309 32.6945 16.9763 32.6945 16.3825L32.6984 16.3903ZM32.6984 5.36333C32.6984 4.36724 33.5031 3.56253 34.4992 3.56253H49.7492L49.3429 3.28519C48.5226 2.72269 48.3156 1.60159 48.8781 0.781286C49.4406 -0.0390238 50.5617 -0.246014 51.382 0.316446L56.5773 3.88285C57.0656 4.21879 57.3585 4.77347 57.3585 5.36725C57.3585 5.96103 57.0656 6.51565 56.5773 6.85165L51.382 10.418C51.0695 10.6329 50.7179 10.7345 50.3625 10.7345C49.7882 10.7345 49.2258 10.461 48.8742 9.95321C48.3117 9.1329 48.5187 8.01181 49.339 7.44931L49.7453 7.17197H34.4953C33.4992 7.17197 32.6945 6.36728 32.6945 5.37117L32.6984 5.36333ZM21.1634 40.9883C21.1634 39.9922 20.3587 39.1875 19.3626 39.1875H3.71056C4.60509 31.7422 10.9567 25.9495 18.6406 25.9495C24.375 25.9495 29.6916 29.2854 32.1876 34.4495C32.6212 35.3441 33.6993 35.719 34.5938 35.2894C35.4883 34.8558 35.8633 33.7777 35.4336 32.8832C33.9297 29.7738 31.5938 27.1449 28.6797 25.2777C27.4766 24.5081 26.1953 23.8871 24.8633 23.4144C26.8047 21.6917 28.0313 19.18 28.0313 16.3871C28.0313 11.2074 23.8165 6.99647 18.6407 6.99647C13.461 6.99647 9.2501 11.2113 9.2501 16.3871C9.2501 19.1801 10.4767 21.6918 12.422 23.4144C5.1915 25.9808 0 32.8871 0 40.9844C0 41.9805 0.80469 42.7852 1.8008 42.7852H19.3628C20.3589 42.7852 21.1636 41.9805 21.1636 40.9844L21.1634 40.9883ZM18.64 10.6013C21.8314 10.6013 24.4291 13.199 24.4291 16.3904C24.4291 19.5818 21.8314 22.1795 18.64 22.1795C15.4486 22.1795 12.8509 19.5818 12.8509 16.3904C12.8509 13.199 15.4486 10.6013 18.64 10.6013ZM70.535 52.9763L67.8827 52.4529L66.0272 47.9763L67.535 45.7302C68.3435 44.5271 68.1834 42.9099 67.16 41.8825L62.4452 37.1677C61.4218 36.1443 59.8046 35.9841 58.5975 36.7927L56.3514 38.3005L51.8748 36.445L51.3513 33.7927C51.0701 32.3708 49.8161 31.3396 48.3669 31.3396H41.695C40.2458 31.3396 38.9919 32.3708 38.7106 33.7927L38.1872 36.445L33.7106 38.3005L31.4645 36.7927C30.2614 35.9841 28.6442 36.1442 27.6168 37.1677L22.902 41.8825C21.8786 42.9059 21.7184 44.5231 22.527 45.7302L24.0348 47.9763L22.1793 52.4529L19.527 52.9763C18.1051 53.2576 17.0739 54.5115 17.0739 55.9607V62.6326C17.0739 64.0818 18.1051 65.3357 19.527 65.617L22.1793 66.1405L24.0348 70.6171L22.527 72.8632C21.7184 74.0663 21.8785 75.6835 22.902 76.7109L27.6168 81.4257C28.6402 82.4491 30.2574 82.6093 31.4645 81.8007L33.7106 80.2929L38.1872 82.1484L38.7106 84.8007C38.9919 86.2226 40.2458 87.2538 41.695 87.2538H48.3669C49.8161 87.2538 51.07 86.2226 51.3513 84.8007L51.8748 82.1484L56.3514 80.2929L58.5975 81.8007C59.8006 82.6093 61.4178 82.4491 62.4452 81.4257L67.16 76.7109C68.1834 75.6875 68.3436 74.0703 67.535 72.8632L66.0272 70.6171L67.8827 66.1405L70.535 65.617C71.9569 65.3358 72.9881 64.0818 72.9881 62.6326V55.9607C72.9881 54.5115 71.9569 53.2576 70.535 52.9763ZM69.3866 62.1716L66.2382 62.7927C65.6483 62.9099 65.1523 63.3122 64.9218 63.8708L62.328 70.1325C62.0975 70.6911 62.16 71.3239 62.4959 71.8239L64.2811 74.488L60.2147 78.5544L57.5506 76.7692C57.0506 76.4333 56.4139 76.3708 55.8592 76.6012L49.5975 79.195C49.0389 79.4255 48.6366 79.9177 48.5194 80.5114L47.8983 83.6598H42.1483L41.5272 80.5114C41.4101 79.9216 41.0077 79.4255 40.4492 79.195L34.1875 76.6012C33.6289 76.3708 32.996 76.4333 32.496 76.7692L29.832 78.5544L25.7655 74.488L27.5508 71.8239C27.8867 71.3239 27.9492 70.6872 27.7187 70.1325L25.1249 63.8708C24.8944 63.3122 24.4023 62.9099 23.8085 62.7927L20.6601 62.1716V56.4216L23.8085 55.8005C24.3984 55.6833 24.8944 55.281 25.1249 54.7224L27.7187 48.4607C27.9492 47.9021 27.8867 47.2693 27.5508 46.7693L25.7655 44.1052L29.832 40.0388L32.496 41.824C32.996 42.16 33.6328 42.2225 34.1875 41.992L40.4492 39.3982C41.0077 39.1677 41.4101 38.6755 41.5272 38.0818L42.1483 34.9334H47.8983L48.5194 38.0818C48.6366 38.6716 49.039 39.1677 49.5975 39.3982L55.8592 41.992C56.4178 42.2225 57.0506 42.16 57.5506 41.824L60.2147 40.0388L64.2811 44.1052L62.4959 46.7693C62.16 47.2693 62.0975 47.906 62.328 48.4607L64.9218 54.7224C65.1522 55.281 65.6444 55.6834 66.2382 55.8005L69.3866 56.4216V62.1716ZM45.0276 42.8596C35.9651 42.8596 28.5896 50.2346 28.5896 59.2976C28.5896 68.364 35.9646 75.7356 45.0276 75.7356C54.094 75.7356 61.4656 68.3606 61.4656 59.2976C61.4656 50.2312 54.0906 42.8596 45.0276 42.8596ZM45.0276 72.1326C37.9495 72.1326 32.1916 66.3748 32.1916 59.2966C32.1916 52.2184 37.9494 46.4606 45.0276 46.4606C52.1058 46.4606 57.8636 52.2184 57.8636 59.2966C57.8636 66.3748 52.1058 72.1326 45.0276 72.1326ZM51.2581 64.656C50.7815 66.5701 49.0823 67.9451 46.8284 68.3748V69.3162C46.8284 70.3123 46.0237 71.117 45.0276 71.117C44.0314 71.117 43.2268 70.3123 43.2268 69.3162V68.2576C40.8518 67.6404 39.1018 65.9607 38.6565 63.7342C38.4611 62.7577 39.094 61.8084 40.0706 61.617C41.0471 61.4217 41.9964 62.0545 42.1878 63.0311C42.4573 64.3749 43.9651 64.8866 45.1761 64.9139C46.4573 64.9413 47.5941 64.4491 47.762 63.785C47.883 63.2928 48.1409 62.2733 45.6175 61.4334C45.2971 61.328 44.9378 61.2264 44.555 61.1209C43.2191 60.7537 41.7073 60.3358 40.5628 59.2928C38.4808 57.4022 38.2386 54.3553 40.0042 52.2069C40.7854 51.2577 41.93 50.5936 43.2308 50.2772V49.2733C43.2308 48.2772 44.0355 47.4725 45.0316 47.4725C46.0277 47.4725 46.8324 48.2772 46.8324 49.2733V50.2772C46.8832 50.289 46.9339 50.3007 46.9886 50.3163C49.3324 50.91 50.973 52.5077 51.3792 54.5975C51.5706 55.5741 50.93 56.5194 49.9534 56.7108C48.9769 56.9022 48.0315 56.2616 47.8401 55.285C47.6565 54.3358 46.6721 53.953 46.1018 53.8084C44.8245 53.4842 43.3674 53.7889 42.7854 54.4959C42.3284 55.0545 42.2112 55.9295 42.9807 56.6287C43.4924 57.0935 44.5198 57.3787 45.5119 57.6521C45.9221 57.7654 46.3479 57.8826 46.7502 58.0193C51.8869 59.7263 51.6096 63.2341 51.2541 64.6599L51.2581 64.656Z" fill="#016DF0"></path></svg>