<svg xmlns="http://www.w3.org/2000/svg" width="92" height="92" viewBox="0 0 92 92" fill="none"><path d="M92 46C92 58.29 87.22 69.84 78.53 78.53C69.84 87.21 58.29 92 46 92C33.06 92 20.87 86.62 12.16 77.16V82.06C12.16 82.68 11.66 83.18 11.04 83.18C10.42 83.18 9.92 82.68 9.92 82.06V74.15C9.92 73.53 10.42 73.03 11.04 73.03H18.96C19.58 73.03 20.08 73.53 20.08 74.15C20.08 74.77 19.58 75.27 18.96 75.27H13.47C21.77 84.5 33.52 89.76 46 89.76C70.13 89.76 89.76 70.13 89.76 46C89.76 38.16 87.66 30.48 83.7 23.77C83.38 23.24 83.56 22.55 84.1 22.23C84.63 21.91 85.32 22.09 85.64 22.63C89.8 29.68 92 37.76 92 46ZM2.24 46C2.24 21.87 21.87 2.24 46 2.24C58.48 2.24 70.23 7.5 78.53 16.73H73.04C72.42 16.73 71.92 17.23 71.92 17.85C71.92 18.47 72.42 18.97 73.04 18.97H80.95C81.57 18.97 82.07 18.47 82.07 17.85V9.94C82.07 9.32 81.57 8.82 80.95 8.82C80.33 8.82 79.83 9.32 79.83 9.94V14.84C71.13 5.38 58.94 0 46 0C33.71 0 22.16 4.79 13.47 13.47C4.79 22.16 0 33.71 0 46C0 54.24 2.2 62.32 6.37 69.37C6.58 69.72 6.95 69.92 7.34 69.92C7.53 69.92 7.73 69.87 7.91 69.76C8.44 69.44 8.62 68.76 8.31 68.22C4.34 61.52 2.24 53.84 2.24 46ZM69.87 58.97C69.62 59.43 69.65 59.91 69.94 60.34L71.6 62.73C72.58 64.14 72.41 66.05 71.19 67.27L67.27 71.19C66.05 72.41 64.15 72.58 62.73 71.6L60.33 69.94C59.9 69.64 59.42 69.62 58.96 69.87C57.29 70.78 55.51 71.52 53.69 72.05C53.19 72.2 52.87 72.56 52.77 73.07L52.25 75.93C51.94 77.62 50.47 78.85 48.75 78.85H43.21C41.49 78.85 40.02 77.62 39.71 75.93L39.19 73.07C39.1 72.56 38.77 72.2 38.27 72.05C36.45 71.51 34.67 70.78 33 69.87C32.54 69.62 32.06 69.65 31.63 69.94L29.24 71.6C27.83 72.58 25.92 72.41 24.7 71.19L20.78 67.27C19.56 66.05 19.39 64.15 20.37 62.73L22.03 60.33C22.33 59.9 22.35 59.42 22.1 58.96C21.19 57.29 20.45 55.52 19.92 53.69C19.77 53.19 19.41 52.87 18.9 52.77L16.04 52.25C14.35 51.94 13.12 50.47 13.12 48.75V43.21C13.12 41.49 14.35 40.02 16.04 39.71L18.9 39.19C19.41 39.1 19.77 38.77 19.92 38.27C20.46 36.45 21.19 34.67 22.1 33C22.35 32.54 22.32 32.06 22.03 31.63L20.37 29.24C19.39 27.83 19.56 25.92 20.78 24.7L24.7 20.78C25.92 19.56 27.82 19.39 29.24 20.37L31.64 22.03C32.07 22.33 32.55 22.35 33.01 22.1C34.68 21.19 36.46 20.45 38.28 19.92C38.78 19.77 39.1 19.41 39.2 18.9L39.72 16.04C40.03 14.35 41.5 13.12 43.22 13.12H48.76C50.48 13.12 51.95 14.35 52.26 16.04L52.78 18.9C52.87 19.41 53.2 19.77 53.7 19.92C55.52 20.46 57.29 21.19 58.97 22.1C59.43 22.35 59.91 22.32 60.34 22.03L62.74 20.37C64.15 19.39 66.06 19.56 67.28 20.78L71.2 24.7C72.42 25.92 72.59 27.82 71.61 29.24L69.95 31.64C69.65 32.07 69.63 32.55 69.88 33.01C70.79 34.68 71.53 36.46 72.06 38.28C72.21 38.78 72.57 39.1 73.08 39.2L75.95 39.72C77.64 40.03 78.87 41.5 78.87 43.22V48.76C78.87 50.48 77.64 51.95 75.95 52.26L73.09 52.78C72.58 52.87 72.22 53.2 72.07 53.7C71.51 55.53 70.78 57.3 69.87 58.97ZM67.9 57.9C68.74 56.37 69.41 54.74 69.9 53.07C70.29 51.76 71.32 50.83 72.67 50.58L75.53 50.06C76.16 49.94 76.61 49.42 76.61 48.77V43.23C76.61 42.59 76.17 42.06 75.53 41.94L72.66 41.42C71.31 41.18 70.28 40.24 69.89 38.93C69.4 37.26 68.72 35.64 67.89 34.1C67.23 32.9 67.31 31.5 68.09 30.38L69.75 27.98C70.12 27.45 70.05 26.76 69.6 26.31L65.68 22.39C65.22 21.93 64.54 21.87 64.01 22.24L61.61 23.9C60.48 24.68 59.09 24.75 57.89 24.1C56.36 23.26 54.73 22.59 53.06 22.1C51.75 21.71 50.82 20.68 50.57 19.33L50.05 16.47C49.94 15.84 49.41 15.39 48.76 15.39H43.22C42.58 15.39 42.05 15.83 41.93 16.47L41.41 19.33C41.17 20.68 40.23 21.71 38.92 22.1C37.25 22.59 35.63 23.27 34.09 24.1C32.89 24.76 31.49 24.68 30.37 23.9L27.97 22.24C27.44 21.87 26.75 21.94 26.3 22.39L22.38 26.31C21.92 26.77 21.86 27.45 22.23 27.98L23.89 30.37C24.67 31.5 24.75 32.89 24.09 34.09C23.25 35.62 22.58 37.25 22.09 38.92C21.7 40.23 20.67 41.16 19.32 41.41L16.46 41.93C15.83 42.05 15.38 42.57 15.38 43.22V48.76C15.38 49.4 15.82 49.93 16.46 50.05L19.32 50.57C20.67 50.81 21.7 51.75 22.09 53.06C22.58 54.73 23.26 56.35 24.09 57.89C24.75 59.09 24.67 60.49 23.89 61.61L22.23 64.01C21.86 64.54 21.93 65.23 22.38 65.68L26.3 69.6C26.75 70.05 27.44 70.12 27.97 69.75L30.36 68.09C30.98 67.66 31.67 67.45 32.38 67.45C32.96 67.45 33.54 67.6 34.09 67.89C35.62 68.73 37.25 69.4 38.92 69.89C40.23 70.28 41.16 71.31 41.41 72.66L41.93 75.52C42.04 76.15 42.57 76.6 43.22 76.6H48.76C49.4 76.6 49.93 76.16 50.05 75.52L50.57 72.66C50.81 71.31 51.75 70.28 53.06 69.89C54.73 69.4 56.35 68.72 57.89 67.89C59.09 67.23 60.49 67.31 61.61 68.09L64.01 69.75C64.54 70.12 65.23 70.05 65.68 69.6L69.6 65.68C70.06 65.22 70.12 64.54 69.75 64.01L68.09 61.62C67.32 60.49 67.24 59.1 67.9 57.9ZM63.4 46C63.4 55.59 55.6 63.4 46 63.4C36.41 63.4 28.6 55.6 28.6 46C28.6 36.41 36.4 28.6 46 28.6C55.59 28.6 63.4 36.41 63.4 46ZM61.15 46C61.15 37.64 54.35 30.85 46 30.85C37.64 30.85 30.85 37.65 30.85 46C30.85 54.35 37.64 61.15 46 61.15C54.36 61.15 61.15 54.36 61.15 46ZM56.43 39.43C57.01 40.22 57.25 41.18 57.11 42.15C56.97 43.12 56.45 43.97 55.67 44.56L43.79 53.33C43.13 53.8 42.37 54.05 41.6 54.05C41.39 54.05 41.18 54.03 40.96 53.99C40 53.82 39.16 53.28 38.59 52.46L34.59 46.69C34.03 45.88 33.82 44.91 34 43.95C34.18 42.99 34.72 42.15 35.52 41.59C37.18 40.44 39.47 40.86 40.62 42.52L42.46 45.18L51.3 38.66C52.08 38.08 53.05 37.84 54.02 37.98C54.99 38.13 55.85 38.65 56.43 39.43ZM54.89 41.82C54.95 41.44 54.85 41.07 54.63 40.77C54.4 40.47 54.07 40.27 53.7 40.21C53.32 40.15 52.95 40.25 52.65 40.47L42.88 47.68C42.64 47.86 42.33 47.93 42.03 47.88C41.73 47.83 41.46 47.66 41.29 47.41L38.79 43.79C38.57 43.48 38.25 43.27 37.88 43.2C37.51 43.13 37.13 43.21 36.82 43.43C36.51 43.65 36.3 43.97 36.23 44.34C36.16 44.71 36.24 45.09 36.46 45.4L40.46 51.17C40.68 51.49 41 51.7 41.37 51.76C41.76 51.83 42.16 51.73 42.49 51.49L54.35 42.73C54.64 42.53 54.83 42.2 54.89 41.82Z" fill="#016DF0"></path></svg>