<svg xmlns="http://www.w3.org/2000/svg" width="92" height="92" viewBox="0 0 92 92" fill="none"><path d="M7.82604 75.7924C2.59164 68.7533 -0.185658 60.0264 0.00964177 51.2104C0.0213598 50.6987 0.0408918 50.1909 0.0721418 49.6792V49.6401C0.0838598 49.4253 0.103392 49.2104 0.122923 48.9878C0.122923 48.937 0.134642 48.8862 0.134642 48.8355C0.154173 48.6323 0.173704 48.4292 0.197142 48.2222C0.20886 48.1597 0.20886 48.1011 0.216673 48.0386C0.236204 47.8433 0.255736 47.6401 0.286986 47.4448C0.298704 47.3745 0.298704 47.312 0.306517 47.2417C0.326048 47.0464 0.357298 46.855 0.388548 46.6597C0.400267 46.5894 0.408079 46.5269 0.419798 46.4566C0.451048 46.2613 0.482298 46.0698 0.513548 45.8745C0.525267 45.8042 0.533079 45.7417 0.544798 45.6714C0.576048 45.4761 0.607298 45.2847 0.646358 45.0894C0.658077 45.0269 0.66589 44.9566 0.677608 44.8941C0.716671 44.6988 0.74792 44.4956 0.790887 44.3003C0.802605 44.2378 0.810418 44.1792 0.829949 44.1167C0.869012 43.9136 0.911982 43.7183 0.96276 43.5152C0.974479 43.4527 0.982291 43.4019 1.00182 43.3433C1.0526 43.1402 1.09557 42.937 1.14635 42.73C1.15807 42.6792 1.16588 42.6285 1.18541 42.5855C1.2362 42.3706 1.28697 42.1675 1.34947 41.9527C1.36119 41.9136 1.36901 41.8706 1.38072 41.8316C1.44322 41.6167 1.50181 41.3941 1.56431 41.1792C1.57603 41.148 1.58385 41.1285 1.58385 41.0972C1.64635 40.8745 1.71666 40.6363 1.78698 40.4136C1.78698 40.4019 1.79869 40.3941 1.79869 40.3824C3.17759 35.9136 5.34949 31.6871 8.20489 27.9644L6.27519 26.0347C5.85722 25.6167 5.73613 24.9956 5.95878 24.4527C6.18144 23.9136 6.71269 23.5542 7.29468 23.5542L17.9587 23.5581C18.7634 23.5581 19.4079 24.2105 19.4079 25.0073V35.6793C19.4079 36.2614 19.0524 36.7926 18.5094 37.0152C17.9704 37.2379 17.3453 37.1168 16.9274 36.6988L15.1422 34.9136C7.97034 45.1596 7.92744 59.1086 15.2126 69.4016C15.6735 70.054 15.5172 70.9641 14.8649 71.4211C14.2126 71.8821 13.3024 71.7258 12.8454 71.0735C8.7438 65.2766 6.6735 58.4405 6.8337 51.3075C7.00558 44.1552 9.4275 37.4015 13.8337 31.7955C14.0876 31.4673 14.4782 31.2642 14.8845 31.2447C15.3025 31.2252 15.7009 31.3775 15.9978 31.6627L16.4978 32.1627V26.44H10.7751L11.1423 26.8071C11.6735 27.3384 11.7126 28.1743 11.236 28.7563C5.72434 35.4711 2.91964 43.6353 2.85714 51.8263V51.9474V52.1623C2.86886 54.592 3.10323 57.01 3.59152 59.3967C4.64232 64.5608 6.82592 69.5607 10.1423 74.0177C10.3259 74.2638 10.4197 74.5372 10.4275 74.8224V74.9161V74.9552C10.4079 75.3732 10.2048 75.7833 9.84545 76.0568C9.59154 76.2521 9.28295 76.3419 8.97826 76.3419C8.55248 76.3732 8.11498 76.1662 7.82596 75.7912L7.82604 75.7924ZM16.5838 22.8004C16.6971 22.8199 16.7987 22.8395 16.912 22.8395C17.0331 22.8395 17.1581 22.8199 17.2792 22.7887C17.3104 22.777 17.3299 22.777 17.3612 22.7691C17.3729 22.7691 17.3729 22.7574 17.3807 22.7574C17.5253 22.7066 17.6581 22.6441 17.7792 22.5543C22.3495 19.1481 27.6347 16.8824 33.1972 15.8902C33.4628 15.8394 33.7284 15.7965 33.994 15.7574C34.5253 15.6754 35.0565 15.6051 35.5956 15.5426C37.7401 15.2965 39.912 15.2457 42.0956 15.3902C42.8925 15.441 43.5839 14.8394 43.6347 14.0347C43.6855 13.2378 43.084 12.5464 42.2792 12.4956C32.8808 11.8823 23.5642 14.6401 16.0452 20.23C15.9632 20.2925 15.8929 20.3511 15.8304 20.4253C15.7679 20.4956 15.7093 20.5777 15.6663 20.6597C15.6468 20.6988 15.6273 20.7417 15.6038 20.7808C15.389 21.2495 15.432 21.812 15.7562 22.2613C15.9593 22.5347 16.2674 22.7184 16.5838 22.8004ZM36.3888 20.8121C36.2677 20.0152 35.5334 19.4762 34.7365 19.5973C30.3381 20.2692 26.092 21.8434 22.3305 24.1911C21.7915 24.527 21.268 24.8747 20.7485 25.2419C20.0962 25.7028 19.9439 26.6091 20.4009 27.2614C20.686 27.6598 21.1353 27.8747 21.5845 27.8747C21.8696 27.8747 22.1665 27.7926 22.4204 27.609C26.186 24.9449 30.5845 23.1715 35.1664 22.4645C35.9594 22.3435 36.502 21.6089 36.3888 20.8121ZM67.9198 75.9641C67.9081 76.0032 67.9003 76.0461 67.8886 76.0969V76.1282C67.8769 76.1594 67.8769 76.1985 67.8769 76.2297V76.2688V76.3508V76.4133V76.4758C67.8769 76.5071 67.8769 76.5266 67.8886 76.5578C67.8886 76.5696 67.8886 76.5891 67.9003 76.5969C67.9003 76.6282 67.912 76.6672 67.9198 76.6985V76.718C67.9823 76.9953 68.1347 77.2492 68.3573 77.4524L68.6738 77.7688H62.9511V72.0461L63.4511 72.5461C63.7479 72.843 64.1464 72.9953 64.5644 72.9641C64.9823 72.9445 65.3612 72.7414 65.6152 72.4133C70.748 65.8821 73.1972 57.6983 72.5136 49.3823C72.4511 48.5854 71.7479 47.9956 70.9511 48.0542C70.1542 48.1167 69.5644 48.8198 69.623 49.6167C70.205 56.6558 68.3261 63.5857 64.3183 69.3007L62.5214 67.5038C62.1034 67.0858 61.4823 66.9647 60.9394 67.1874C60.4003 67.41 60.0409 67.9413 60.0409 68.5233V79.1953C60.0409 79.9999 60.6932 80.6445 61.4901 80.6445H72.1621C72.7441 80.6445 73.2754 80.289 73.498 79.746C73.7207 79.207 73.5996 78.5819 73.1816 78.164L71.2519 76.2343C71.4355 76 71.6074 75.7538 71.791 75.5195C71.8027 75.5078 71.8027 75.5078 71.8105 75.4999C71.9824 75.2656 72.1464 75.0312 72.3105 74.7968C72.3222 74.7773 72.33 74.7656 72.3417 74.746C72.5058 74.5234 72.6582 74.2851 72.8105 74.0507C72.83 74.0312 72.8417 73.9999 72.8613 73.9804C73.0136 73.7578 73.1582 73.5312 73.2988 73.2968C73.3183 73.2656 73.3378 73.2343 73.3496 73.2031C73.4941 72.9804 73.6347 72.7539 73.7675 72.5195C73.7871 72.4882 73.7988 72.457 73.8183 72.4257C73.9511 72.2031 74.0957 71.9648 74.2168 71.7421C74.2285 71.7226 74.248 71.6914 74.2558 71.6718C74.9394 70.4765 75.5527 69.2538 76.1035 67.9999C76.1426 67.9062 76.1855 67.828 76.2246 67.7343C76.2949 67.5702 76.3691 67.3984 76.4277 67.2343C76.4785 67.121 76.5215 67.0116 76.5723 66.8866C76.6348 66.7343 76.6933 66.5702 76.7558 66.4062C76.8066 66.2851 76.8496 66.1601 76.9004 66.039C76.9629 65.8866 77.0137 65.7226 77.0723 65.5702C77.123 65.4491 77.166 65.3163 77.2051 65.1913C77.2558 65.0273 77.3183 64.8749 77.3691 64.7109C77.4082 64.5898 77.4512 64.4569 77.4902 64.3319C77.541 64.1679 77.5918 64.0038 77.6426 63.8437C77.6816 63.7226 77.7246 63.5897 77.7558 63.4647C77.8066 63.3007 77.8574 63.1288 77.9004 62.9647C77.9316 62.8437 77.9707 62.7187 78.0019 62.5976C78.0527 62.4257 78.0957 62.2499 78.1465 62.078C78.1777 61.9647 78.209 61.8437 78.2402 61.7304C78.2793 61.5468 78.334 61.3632 78.373 61.1913C78.3925 61.078 78.4238 60.9765 78.4433 60.8632C78.4824 60.6679 78.5254 60.4843 78.5644 60.2929C78.5839 60.1913 78.6035 60.0976 78.6269 59.996C78.666 59.7929 78.7089 59.5897 78.748 59.3827C78.7675 59.289 78.7793 59.2108 78.7988 59.1171C78.8379 58.9023 78.8691 58.6874 78.9121 58.4648C78.9238 58.3944 78.9316 58.3202 78.9433 58.2499C78.9824 58.0155 79.0136 57.7812 79.0449 57.5546C79.0566 57.5038 79.0566 57.4413 79.0644 57.3905C79.0957 57.1366 79.1269 56.8905 79.1582 56.6366C79.1582 56.6054 79.1699 56.5741 79.1699 56.5429C79.2011 56.2655 79.2324 55.9921 79.2519 55.7148C79.4355 53.6328 79.4667 51.5195 79.3222 49.3867C79.2714 48.6328 78.6582 48.0586 77.9238 48.039H77.7715C76.9746 48.0897 76.3731 48.7851 76.4238 49.5898C77.0683 58.996 74.1386 68.1838 68.1777 75.4378C68.0644 75.6096 67.9824 75.7815 67.9199 75.9651L67.9198 75.9641ZM11.1658 73.8821V84.5541C11.1658 85.1361 11.5213 85.6674 12.0643 85.89C12.6033 86.1127 13.2284 85.9916 13.6463 85.5736L15.576 83.6439C15.6072 83.6751 15.6463 83.6947 15.6775 83.7142C15.8104 83.8158 15.9432 83.9173 16.076 84.0111C16.1463 84.0619 16.2283 84.1244 16.2986 84.1751C16.4432 84.2767 16.5955 84.39 16.7361 84.4916C16.7986 84.5306 16.8572 84.5853 16.9197 84.6244C17.0838 84.7376 17.2361 84.847 17.4002 84.9603C17.451 84.9916 17.5018 85.0306 17.5525 85.0619C17.7244 85.1829 17.9002 85.2962 18.0838 85.4095C18.1229 85.4291 18.1541 85.4603 18.1971 85.4798C18.3924 85.6009 18.576 85.7259 18.7674 85.847C18.7869 85.8587 18.8064 85.8666 18.8299 85.8861C19.033 86.0189 19.2479 86.14 19.4627 86.265C25.2908 89.7142 31.9827 91.6517 38.8107 91.8041C39.1037 91.8197 39.4005 91.8314 39.6974 91.8314C48.2091 91.8314 56.5844 89.0658 63.3924 84.0033C63.6385 83.8198 63.7987 83.5854 63.8924 83.3197C63.9549 83.1479 63.9862 82.9643 63.9744 82.769C63.9627 82.4916 63.8729 82.2065 63.6893 81.9721C63.5877 81.8393 63.4744 81.726 63.3533 81.644C62.8533 81.2963 62.1814 81.2963 61.6697 81.6752C48.0997 91.7772 29.4857 91.3275 16.3927 80.5932C16.3537 80.562 16.3224 80.5307 16.2795 80.5112C16.2677 80.4995 16.2482 80.4917 16.2287 80.4799C16.2092 80.4682 16.1779 80.4487 16.1584 80.4409C16.1388 80.4292 16.1193 80.4213 16.0959 80.4096C16.0763 80.3979 16.0568 80.3901 16.0256 80.3784C16.006 80.3667 15.9865 80.3588 15.9631 80.3588C15.9435 80.3471 15.924 80.3393 15.9006 80.3393C15.881 80.3276 15.8615 80.3276 15.8381 80.3198C15.8185 80.3081 15.799 80.3081 15.7756 80.3002C15.756 80.3002 15.7365 80.2885 15.7052 80.2885C15.6857 80.2885 15.6662 80.2768 15.6349 80.2768C15.6154 80.2768 15.5959 80.2768 15.5724 80.2651H15.5021H15.4396H15.3693C15.3498 80.2651 15.3302 80.2651 15.3068 80.2768C15.2873 80.2768 15.256 80.2885 15.2365 80.2885C15.217 80.2885 15.1974 80.3002 15.174 80.3002C15.1545 80.3002 15.1232 80.312 15.1037 80.3198C15.0842 80.3315 15.0646 80.3315 15.0412 80.3393C15.0217 80.351 15.0021 80.3588 14.9709 80.3588C14.9513 80.3706 14.9318 80.3706 14.9084 80.3784C14.8888 80.3901 14.8693 80.3979 14.8459 80.4096C14.8263 80.4213 14.8068 80.4292 14.7834 80.4409C14.7638 80.4526 14.7443 80.4604 14.7209 80.4721C14.7013 80.4838 14.6818 80.4917 14.6584 80.5112C14.6388 80.5229 14.6271 80.5307 14.6076 80.5502C14.5881 80.562 14.5685 80.5815 14.5451 80.5893C14.5256 80.601 14.5138 80.6206 14.4943 80.6284C14.4748 80.6479 14.4552 80.6596 14.4318 80.6792L14.0646 81.0463V75.3236H19.7873L19.2873 75.8236C18.9904 76.1205 18.8381 76.519 18.8693 76.9369C18.8889 77.3549 19.092 77.7338 19.4201 77.9877C25.0217 82.3939 31.7751 84.8158 38.9321 84.9877C46.0649 85.1596 52.9011 83.0815 58.6981 78.976C59.3505 78.5151 59.5028 77.6088 59.0458 76.9565C58.5848 76.3042 57.6786 76.1519 57.0263 76.6089C46.7413 83.8941 32.7923 83.855 22.5383 76.6792L24.3235 74.894C24.7415 74.476 24.8625 73.8549 24.6399 73.312C24.4172 72.7729 23.886 72.4136 23.304 72.4136L12.616 72.4253C11.8191 72.4253 11.1658 73.0774 11.1658 73.8821ZM17.3181 47.0071C16.6346 47.1399 16.1462 47.7415 16.1462 48.4368V55.804C16.1462 56.4993 16.6345 57.0892 17.3181 57.222L21.0134 57.9447L22.3689 61.2181L20.2751 64.3392C19.8884 64.9095 19.9587 65.6869 20.447 66.1751L25.6618 71.3899C26.1501 71.8781 26.9157 71.9524 27.4977 71.5734L30.6149 69.4757L33.8922 70.8312L34.6149 74.5148C34.7477 75.1984 35.3493 75.6868 36.0446 75.6868H43.4118C44.1071 75.6868 44.697 75.1985 44.8298 74.5148L45.5524 70.8312L48.8297 69.4757L51.9508 71.5695C52.5211 71.9563 53.2985 71.8742 53.7867 71.386L59.0015 66.1712C59.4898 65.6829 59.564 64.9173 59.1851 64.3353L57.0835 61.2181L58.439 57.9408L62.1226 57.2181C62.8062 57.0853 63.2945 56.4837 63.2945 55.8001V49.5032C63.2945 48.6985 62.6422 48.054 61.8453 48.054C61.0406 48.054 60.3961 48.7063 60.3961 49.5032V54.6048L57.1188 55.2571C56.6384 55.3509 56.2399 55.6751 56.0563 56.1243L54.1071 60.8274C53.9235 61.2766 53.9743 61.7884 54.2399 62.1946L56.0954 64.9719L52.5759 68.4914L49.7986 66.6281C49.3924 66.3625 48.8807 66.3117 48.4314 66.4953L43.7283 68.4445C43.2791 68.6281 42.951 69.0265 42.8611 69.507L42.2088 72.7922H37.2283L36.5838 69.5149C36.49 69.0344 36.1658 68.636 35.7166 68.4524L31.0018 66.5032C30.5526 66.3196 30.0409 66.3704 29.6346 66.636L26.8573 68.4915L23.3378 64.972L25.205 62.1947C25.4823 61.7885 25.5331 61.2768 25.3378 60.8275L23.3886 56.1166C23.205 55.6674 22.8066 55.3393 22.3261 55.2494L19.0409 54.5971V49.6166L22.3261 48.976C22.8066 48.8822 23.205 48.558 23.3886 48.1088L25.3495 43.394C25.5331 42.9448 25.4823 42.433 25.2167 42.0268L23.3495 39.2495L26.869 35.73L29.6463 37.5972C30.0525 37.8745 30.5643 37.9253 31.0135 37.73L35.7166 35.7808C36.1658 35.5972 36.4939 35.1988 36.5838 34.7183L37.3494 30.8121C37.5018 30.0269 36.9939 29.2613 36.2049 29.109C35.4198 28.9567 34.6541 29.4645 34.5018 30.2535L33.8885 33.398L30.6151 34.7613L27.494 32.6675C26.9237 32.2808 26.1463 32.3511 25.6581 32.8394L20.4433 38.0542C19.9551 38.5425 19.8808 39.3081 20.2715 39.8901L22.3653 43.0112L21.0098 46.2885L17.3181 47.0071ZM36.9821 42.9524C37.7478 42.7297 38.1852 41.9133 37.9509 41.1477C37.7282 40.3821 36.9118 39.9446 36.1462 40.1789C30.9118 41.7414 27.2595 46.6477 27.2595 52.1169C27.2595 58.9841 32.8533 64.5779 39.7205 64.5779C46.5877 64.5779 52.1815 58.9841 52.1815 52.1169C52.1815 51.1287 52.0682 50.1364 51.8338 49.1677C51.6502 48.3904 50.8651 47.9138 50.0877 48.0974C49.3104 48.281 48.8338 49.0662 49.0174 49.8435C49.1893 50.5896 49.2831 51.3552 49.2831 52.1208C49.2831 57.3981 44.9979 61.6833 39.7206 61.6833C34.4433 61.6833 30.1581 57.3981 30.1581 52.1208C30.1659 47.9255 32.9587 44.1595 36.9821 42.9524ZM53.3571 28.3824H51.0016V45.8704C51.0016 46.6751 50.3493 47.3196 49.5524 47.3196H40.1969C39.3923 47.3196 38.7477 46.6673 38.7477 45.8704V28.3824H36.3805C35.4196 28.3824 34.5641 27.8121 34.2086 26.9215C33.8415 26.0348 34.0446 25.0348 34.7282 24.359L43.0055 16.0817C44.0367 15.0505 45.7282 15.0505 46.7594 16.0817L55.0446 24.3669C55.7165 25.0388 55.9235 26.0505 55.5563 26.9294C55.1657 27.8122 54.318 28.3824 53.3571 28.3824ZM52.0407 25.484L44.8688 18.3121L37.6969 25.484H40.1969C41.0016 25.484 41.6461 26.1363 41.6461 26.9332V44.4212H48.107L48.1031 26.9332C48.1031 26.1285 48.7555 25.484 49.5523 25.484H52.0407ZM73.0837 16.7106C73.7556 17.3825 73.9627 18.3942 73.5955 19.2731C73.2283 20.1598 72.3807 20.7223 71.4236 20.7223H69.0564V45.8673C69.0564 46.672 68.404 47.3165 67.6072 47.3165H58.2517C57.447 47.3165 56.8025 46.6642 56.8025 45.8673L56.7986 20.7303H54.4314C53.4704 20.7303 52.6267 20.16 52.2595 19.2811C51.8923 18.3944 52.0954 17.3944 52.7712 16.7108L61.0485 8.4335C61.5368 7.9335 62.2126 7.65616 62.9157 7.65616H62.9274C63.6422 7.65616 64.3063 7.9335 64.8063 8.4335L73.0837 16.7106ZM70.0915 17.82L62.9196 10.6481L55.7477 17.82H58.2477C59.0524 17.82 59.6969 18.4723 59.6969 19.2692V44.4142H66.1461L66.1422 19.2812C66.1422 18.4765 66.7946 17.832 67.5914 17.832H70.0914L70.0915 17.82ZM82.8575 0.768996L91.1427 9.0542C91.8146 9.73779 92.0217 10.7495 91.6545 11.6245C91.2873 12.5034 90.4318 13.0737 89.4826 13.0737H87.1271V45.8707C87.1271 46.6754 86.4747 47.3199 85.6779 47.3199H76.3224C75.5177 47.3199 74.8732 46.6676 74.8732 45.8707L74.8693 13.0777H72.5021C71.5411 13.0777 70.6974 12.5074 70.3302 11.6285C69.963 10.7418 70.1661 9.7418 70.8419 9.066L79.1271 0.780796C80.1427 -0.258304 81.8262 -0.258385 82.8575 0.768996ZM88.1661 10.1792L80.9942 3.0073L73.8223 10.1792H76.3223C77.127 10.1792 77.7715 10.8315 77.7715 11.6284V44.4254H84.2324L84.2246 11.6284C84.2246 10.8237 84.877 10.1792 85.6738 10.1792H88.1661Z" fill="#016DF0"></path></svg>