<svg xmlns="http://www.w3.org/2000/svg" width="95" height="95" viewBox="0 0 95 95" fill="none"><path d="M91.4813 78.883L62.1023 52.641C65.6804 47.2699 67.782 40.821 67.782 33.891C67.782 15.211 52.583 0 33.891 0C15.211 0 0 15.199 0 33.891C0 52.571 15.199 67.782 33.891 67.782C40.8207 67.782 47.262 65.6922 52.641 62.1023L78.879 91.4813C80.379 93.161 82.4884 94.1219 84.8282 94.1922H85.0782C87.4884 94.1922 89.8165 93.2313 91.5274 91.532C93.2891 89.7703 94.2579 87.3328 94.1876 84.8211C94.1212 82.493 93.161 80.383 91.4813 78.883ZM33.8913 65.481C16.4693 65.481 2.3013 51.309 2.3013 33.891C2.31302 16.473 16.4813 2.301 33.8913 2.301C51.3133 2.301 65.4813 16.473 65.4813 33.891C65.4813 51.313 51.3133 65.481 33.8913 65.481ZM54.5243 60.7505C56.8641 58.9497 58.9657 56.8521 60.7626 54.5122L69.4345 62.2622L62.2743 69.4224L54.5243 60.7505ZM89.9113 89.9105C88.591 91.2308 86.7707 91.9496 84.8996 91.8988C83.2004 91.848 81.6808 91.1605 80.5988 89.9574L63.8018 71.1414L71.1534 63.7898L89.9624 80.5908C91.1616 81.6611 91.853 83.1924 91.9038 84.8799C91.9429 86.7627 91.2238 88.5902 89.9113 89.9105ZM33.8913 6.8835C19.0003 6.8835 6.8833 19.0005 6.8833 33.8915C6.8833 48.7825 19.0043 60.9035 33.8953 60.9035C48.7863 60.9035 60.9073 48.7825 60.9073 33.8915C60.9112 19.0005 48.7943 6.8835 33.8913 6.8835ZM33.8913 58.6135C20.2623 58.6135 9.1803 47.5235 9.1803 33.9025C9.1803 20.2735 20.2703 9.1915 33.8913 9.1915C47.5123 9.1915 58.6023 20.2815 58.6023 33.9025C58.614 47.5235 47.5243 58.6135 33.8913 58.6135ZM52.6613 33.8905C52.6613 34.5194 52.1496 35.0389 51.5129 35.0389H44.3723L38.8215 47.4799C38.6301 47.9018 38.2199 48.1596 37.7707 48.1596H37.6926C37.2121 48.1283 36.802 47.8002 36.6614 47.3393L29.802 24.0813L25.2122 34.3623C25.0325 34.7724 24.6106 35.042 24.1614 35.042H16.2825C15.6536 35.042 15.1341 34.5302 15.1341 33.8936C15.1341 33.2647 15.6458 32.7452 16.2825 32.7452H23.4231L28.9739 20.3042C29.1731 19.8628 29.6223 19.5932 30.1028 19.6245C30.5832 19.6557 30.9934 19.9838 31.134 20.4448L38.0051 43.7068L42.5949 33.4258C42.7746 33.0156 43.1964 32.7461 43.6457 32.7461H51.5246C52.1418 32.7422 52.6613 33.2616 52.6613 33.8905Z" fill="#016DF0"></path></svg>