<svg xmlns="http://www.w3.org/2000/svg" width="96" height="91" viewBox="0 0 96 91" fill="none"><path d="M95.8049 18.1354C95.7307 17.6081 95.344 17.1745 94.8283 17.0416L91.7228 16.2565C91.3556 14.9635 90.84 13.7213 90.1837 12.5417L91.8243 9.79166C92.0978 9.33072 92.0665 8.75256 91.7423 8.32286C90.5782 6.78766 89.2071 5.42056 87.6759 4.25646C87.2501 3.93224 86.6681 3.90099 86.2071 4.17443L83.4571 5.81892C82.2813 5.16267 81.0391 4.64313 79.7462 4.27983L78.965 1.17822C78.836 0.658695 78.4025 0.271975 77.8712 0.197755C75.9767 -0.0639648 74.0196 -0.0678648 72.1173 0.197755C71.5899 0.271974 71.1563 0.658695 71.0235 1.17431L70.2383 4.27981C68.9453 4.647 67.6992 5.16263 66.5235 5.81892L63.7696 4.17832C63.3087 3.90488 62.7305 3.94004 62.3048 4.26035C60.7618 5.43225 59.3946 6.79945 58.2423 8.32285C57.9181 8.74863 57.8868 9.33065 58.1642 9.78765L59.8048 12.5337C59.1485 13.7095 58.629 14.9556 58.2618 16.2525L55.1563 17.0377C54.6367 17.1705 54.25 17.6041 54.1758 18.1354C54.0469 19.0924 53.9844 20.0573 53.9844 21.0026C53.9844 21.9831 54.0508 22.9518 54.1758 23.8776C54.25 24.4049 54.6367 24.8385 55.1524 24.9714L58.2579 25.7566C58.6251 27.0535 59.1407 28.2957 59.8009 29.4754L58.1603 32.2215C57.8868 32.6824 57.9181 33.2606 58.2423 33.6903C59.4064 35.2215 60.7735 36.5887 62.3048 37.7528C62.7306 38.077 63.3126 38.1082 63.7696 37.8348L66.5196 36.1942C67.6954 36.8504 68.9415 37.37 70.2344 37.7372L71.0196 40.8427C71.1524 41.3622 71.582 41.7489 72.1133 41.8193C73.0626 41.9521 74.0313 42.0185 74.9883 42.0185C75.9453 42.0185 76.9181 41.9521 77.8673 41.8193C78.3985 41.745 78.8321 41.3583 78.9611 40.8388L79.7423 37.7372C81.0353 37.37 82.2814 36.8544 83.4571 36.1942L86.2032 37.8348C86.6641 38.1082 87.2423 38.077 87.668 37.7567C89.1875 36.6083 90.5586 35.2411 91.7344 33.6942C92.0586 33.2684 92.0938 32.6864 91.8164 32.2254L90.1758 29.4754C90.8321 28.2957 91.3477 27.0535 91.7149 25.7606L94.8204 24.9754C95.34 24.8426 95.7267 24.4129 95.797 23.8816C95.9298 22.9324 95.9962 21.9636 95.9962 21.0066C95.9962 20.0418 95.9298 19.0769 95.797 18.1316L95.8049 18.1354ZM93.3049 22.6549L90.3283 23.4049C89.8517 23.526 89.4806 23.901 89.3674 24.3776C89.0041 25.9362 88.3869 27.4206 87.5432 28.7917C87.2853 29.2096 87.2814 29.7331 87.5314 30.155L89.1056 32.7917C88.3947 33.6393 87.6173 34.4206 86.7775 35.1159L84.1369 33.5417C83.7151 33.2878 83.1877 33.2956 82.7697 33.5534C81.4064 34.4011 79.922 35.0182 78.3635 35.3815C77.887 35.4948 77.512 35.862 77.3909 36.3346L76.637 39.3151C75.5432 39.4128 74.4417 39.4128 73.344 39.3151L72.594 36.3385C72.4729 35.862 72.0979 35.4909 71.6213 35.3776C70.0588 35.0143 68.5744 34.3971 67.2111 33.5495C66.7931 33.2878 66.2658 33.2838 65.8439 33.5378L63.2072 35.112C62.3635 34.4088 61.5861 33.6276 60.883 32.7878L62.4572 30.1511C62.7111 29.7292 62.7033 29.2018 62.4455 28.7839C61.5978 27.4206 60.9807 25.9362 60.6174 24.3737C60.5041 23.8932 60.1369 23.5182 59.6565 23.401L56.6799 22.651C56.633 22.1158 56.6095 21.5612 56.6095 21.0065C56.6095 20.4635 56.633 19.9127 56.6838 19.362L59.6565 18.612C60.133 18.4909 60.5041 18.1159 60.6174 17.6393C60.9807 16.0768 61.5979 14.5924 62.4455 13.2291C62.7033 12.8112 62.7111 12.2838 62.4572 11.8619L60.883 9.22134C61.5822 8.3815 62.3635 7.60414 63.2111 6.89714L65.8439 8.47134C66.2658 8.72525 66.7931 8.72134 67.215 8.45962C68.5783 7.61196 70.0627 6.99482 71.6252 6.63152C72.1057 6.51824 72.4807 6.15105 72.5979 5.67058L73.3479 2.69398C74.4456 2.59632 75.5471 2.59632 76.6409 2.69398L77.3948 5.67448C77.5159 6.15104 77.8909 6.51823 78.3674 6.6276C79.926 6.99479 81.4066 7.60807 82.7737 8.4557C83.1916 8.71742 83.719 8.72132 84.1408 8.46742L86.7775 6.88932C87.6213 7.59635 88.3986 8.37372 89.1056 9.21742L87.5314 11.8541C87.2814 12.276 87.2854 12.7994 87.5432 13.2174C88.3908 14.5885 89.0041 16.0729 89.3674 17.6315C89.4806 18.112 89.8478 18.487 90.3283 18.6042L93.3049 19.3542C93.3557 19.9011 93.3791 20.4519 93.3791 20.9987C93.3791 21.5455 93.3557 22.0964 93.3049 22.6432L93.3049 22.6549ZM74.9929 8.71692C68.2156 8.71692 62.6999 14.2325 62.6999 21.0099C62.6999 27.7873 68.2155 33.3029 74.9929 33.3029C81.7702 33.3029 87.2859 27.7873 87.2859 21.0099C87.2859 14.2325 81.7703 8.71692 74.9929 8.71692ZM74.9929 30.6779C69.6609 30.6779 65.3249 26.342 65.3249 21.0099C65.3249 15.6778 69.6608 11.3419 74.9929 11.3419C80.325 11.3419 84.6609 15.6778 84.6609 21.0099C84.6609 26.342 80.325 30.6779 74.9929 30.6779ZM79.0163 23.7209C79.0163 25.4787 77.8796 26.9748 76.3054 27.5178V28.4709C76.3054 29.1975 75.7156 29.7834 74.9929 29.7834C74.2663 29.7834 73.6804 29.1936 73.6804 28.4709V27.5178C72.5515 27.1272 71.6257 26.2405 71.2077 25.0764C70.9616 24.3928 71.3171 23.6428 71.9968 23.3967C72.6803 23.1506 73.4304 23.5061 73.6765 24.1858C73.8757 24.7405 74.4069 25.1155 74.9929 25.1155C75.7624 25.1155 76.3913 24.4905 76.3913 23.7249C76.3913 22.9593 75.7623 22.3265 74.9929 22.3265C72.7781 22.3265 70.9734 20.5218 70.9734 18.3031C70.9734 16.5453 72.1062 15.0492 73.6765 14.5062V13.553C73.6765 12.8265 74.2663 12.2405 74.989 12.2405C75.7155 12.2405 76.3015 12.8304 76.3015 13.553V14.5062C77.4343 14.8968 78.3601 15.7874 78.7781 16.9554C79.0203 17.639 78.6648 18.389 77.9812 18.6312C77.2976 18.8734 76.5476 18.5179 76.3054 17.8343C76.1101 17.2835 75.5827 16.9124 74.9929 16.9124C74.2234 16.9124 73.5984 17.5374 73.5984 18.303C73.5984 19.0686 74.2234 19.7014 74.9929 19.7014C77.2117 19.7014 79.0163 21.5061 79.0163 23.7248L79.0163 23.7209ZM91.3323 88.0489H89.6643V51.7759C89.6643 51.0494 89.0745 50.4634 88.3518 50.4634H74.9848C74.2582 50.4634 73.6723 51.0533 73.6723 51.7759V57.1548H61.6133C60.8867 57.1548 60.3008 57.7447 60.3008 58.4673V63.8462H58.6992V55.2446C60.3672 53.9087 61.3047 51.9634 61.3047 49.7446V42.393C61.3047 39.0414 59.2305 37.1196 55.6172 37.1196H47.8555V33.7758C47.8555 31.9867 47.1836 30.2875 45.9649 28.9985C44.6876 27.6391 42.9688 26.8891 41.1329 26.8891H20.1679C18.3398 26.8891 16.6249 27.6352 15.3398 28.9946C14.121 30.2837 13.4492 31.9829 13.4492 33.7758V37.1196H5.6836C2.0742 37.1196 0 39.0415 0 42.393V49.7485C0 51.9751 0.9375 53.9243 2.6055 55.2524V77.8734C2.6055 80.9554 5.0117 83.4672 7.9688 83.4672H46.9218V88.0492H45.2538C44.5272 88.0492 43.9413 88.6391 43.9413 89.3617C43.9413 90.0883 44.5311 90.6742 45.2538 90.6742H91.3278C92.0544 90.6742 92.6403 90.0844 92.6403 89.3617C92.6403 88.6352 92.0505 88.0492 91.3278 88.0492L91.3323 88.0489ZM76.2973 53.0879H87.0393V88.0489H76.2973V53.0879ZM62.9223 59.7793H73.6683V88.0493H62.9223V59.7793ZM16.0783 33.7753C16.0783 32.6542 16.4924 31.5956 17.2502 30.7987C18.0315 29.9706 19.0705 29.5135 20.1721 29.5135H41.1371C42.2426 29.5135 43.2777 29.9666 44.059 30.7987C44.8168 31.6034 45.2387 32.662 45.2387 33.7792V37.123H42.6332V33.7792C42.6332 33.3222 42.4691 32.8964 42.1723 32.58C42.1215 32.5253 42.0629 32.4745 42.0004 32.4277C41.7387 32.2246 41.4496 32.123 41.1371 32.123H20.1721C19.8752 32.123 19.5979 32.2206 19.3362 32.4081C19.2658 32.4589 19.1994 32.5175 19.1369 32.5839C18.8401 32.9003 18.676 33.3261 18.676 33.7831V37.1269H16.0783V33.7753ZM21.301 37.1191V34.7441H40V37.1191H21.301ZM2.629 42.3925C2.629 41.0175 3.00009 39.7441 5.6837 39.7441H55.6137C58.3051 39.7441 58.6762 41.0175 58.6762 42.3925V49.7441C58.6762 51.416 57.8364 52.8418 56.3754 53.6543C49.6723 57.377 42.8914 59.6738 36.1994 60.4863V56.7636C36.1994 56.0371 35.6096 55.4511 34.8869 55.4511H26.4142C25.6876 55.4511 25.1017 56.041 25.1017 56.7636V60.4902C18.3947 59.6816 11.6137 57.3847 4.9217 53.6543C4.83186 53.6035 4.74592 53.5528 4.65998 53.4981C4.65607 53.4942 4.65217 53.4942 4.65217 53.4903C3.36307 52.6582 2.63267 51.3106 2.63267 49.7481V42.3926L2.629 42.3925ZM33.574 58.0765V66.2015H27.7263V58.0765H33.574ZM7.972 80.8425C6.4642 80.8425 5.2337 79.5144 5.2337 77.8777V56.8117C11.8118 60.257 18.4837 62.382 25.1007 63.1398V67.5226C25.1007 68.2492 25.6905 68.8351 26.4132 68.8351H34.8859C35.6125 68.8351 36.1984 68.2453 36.1984 67.5226V63.1359C42.8039 62.3742 49.4754 60.2531 56.0694 56.8078V63.8547H48.2335C47.5069 63.8547 46.921 64.4446 46.921 65.1672V80.8512L7.972 80.8425ZM49.55 66.4715H60.296V88.0495H49.55V66.4715Z" fill="#016DF0"></path></svg>