<svg xmlns="http://www.w3.org/2000/svg" width="93" height="93" viewBox="0 0 93 93" fill="none"><path fill-rule="evenodd" clip-rule="evenodd" d="M89.8436 27.6168C89.8436 26.7535 90.5428 26.0543 91.4061 26.0543C92.2694 26.0543 92.9686 26.7535 92.9686 27.6168V78.3788C92.9686 78.7929 92.8045 79.1913 92.5116 79.4843C92.2186 79.7773 91.8202 79.9413 91.4061 79.9413H87.1288V91.4063C87.1288 91.8204 86.9647 92.2188 86.6717 92.5118C86.3788 92.8048 85.9803 92.9689 85.5662 92.9689H79.0506C78.1874 92.9689 77.4881 92.2696 77.4881 91.4064V68.9454C77.4881 68.0821 78.1874 67.3829 79.0506 67.3829H85.5662C85.9803 67.3829 86.3787 67.5469 86.6717 67.8399C86.9647 68.1329 87.1288 68.5313 87.1288 68.9454V76.8165H89.8436L89.8436 27.6168ZM52.9956 83.3278H59.5112C59.9253 83.3278 60.3237 83.4958 60.6167 83.7887C60.9097 84.0817 61.0737 84.4762 61.0737 84.8903V91.4059C61.0737 91.82 60.9097 92.2184 60.6167 92.5114C60.3237 92.8044 59.9253 92.9685 59.5112 92.9685H52.9956C52.1362 92.9685 51.4331 92.2693 51.4331 91.406V84.8904C51.4331 84.031 52.1362 83.3278 52.9956 83.3278ZM57.9487 86.4528H54.5581V89.8434H57.9487V86.4528ZM66.0268 76.8122L72.5385 76.8161C72.9526 76.8161 73.351 76.9802 73.644 77.2731C73.937 77.5661 74.101 77.9645 74.101 78.3786V91.4056C74.101 91.8197 73.937 92.2181 73.644 92.5111C73.351 92.8041 72.9526 92.9682 72.5385 92.9682H66.0229C65.1635 92.9682 64.4604 92.269 64.4604 91.4057V78.3787C64.4604 77.5154 65.1635 76.8162 66.0229 76.8162L66.0268 76.8122ZM70.976 79.9372L67.5854 79.9411V89.8434H70.976V79.9372ZM84.003 70.5075H80.6124V89.8435H84.003V70.5075ZM57.358 73.652L80.745 50.254V53.0001C80.745 53.8595 81.4442 54.5626 82.3075 54.5626C83.1708 54.5626 83.87 53.8595 83.87 53.0001V46.4845C83.87 46.0704 83.7059 45.672 83.413 45.379C83.12 45.086 82.7216 44.922 82.3075 44.922H75.7919H75.7958C74.9325 44.922 74.2333 45.6212 74.2333 46.4845C74.2333 47.3478 74.9325 48.047 75.7958 48.047H78.5458L55.1478 71.453C54.5423 72.0624 54.5462 73.0507 55.1556 73.6561C55.765 74.2655 56.7526 74.2614 57.358 73.652ZM78.378 3.125C77.5147 3.125 76.8155 2.42578 76.8155 1.5625C76.8155 0.69922 77.5147 0 78.378 0H91.405C91.8191 0 92.2175 0.16406 92.5105 0.45703C92.8035 0.75 92.9675 1.14844 92.9675 1.56253V14.5895C92.9675 15.4528 92.2683 16.152 91.405 16.152C90.5417 16.152 89.8425 15.4528 89.8425 14.5895V3.12453L78.378 3.125ZM25.128 70.043C24.5186 70.6524 23.5342 70.6563 22.9249 70.0508C22.3155 69.4414 22.3116 68.457 22.9171 67.8477L42.7101 48.0467H3.12409V89.8437H44.9211V50.2417L25.128 70.043ZM45.835 44.922H16.167V3.125H65.351C66.2143 3.125 66.9135 2.42578 66.9135 1.5625C66.9135 0.69922 66.2143 0 65.351 0H14.605C13.7417 0 13.0425 0.69922 13.0425 1.5625V44.9215H1.5625C0.69922 44.9215 0 45.6207 0 46.484V91.406C0 91.8201 0.16406 92.2185 0.45703 92.5115C0.75 92.8045 1.14844 92.9685 1.56253 92.9685H46.4845C46.8986 92.9685 47.297 92.8045 47.59 92.5115C47.883 92.2185 48.0471 91.8201 48.0471 91.406V47.117L76.8011 18.355V27.6167C76.8011 28.48 77.5003 29.1792 78.3636 29.1792C79.2268 29.1792 79.9261 28.48 79.9261 27.6167V14.5897C79.9261 14.1756 79.762 13.7772 79.469 13.4842C79.1761 13.1912 78.7776 13.0272 78.3635 13.0272H65.3365C64.4733 13.0272 63.774 13.7264 63.774 14.5897C63.774 15.4529 64.4733 16.1522 65.3365 16.1522H74.5982L45.835 44.922Z" fill="#016DF0"></path></svg>