<svg xmlns="http://www.w3.org/2000/svg" width="92" height="93" viewBox="0 0 92 93" fill="none"><path fill-rule="evenodd" clip-rule="evenodd" d="M50.7464 45.0391H83.3754C83.8051 43.211 85.4535 41.8477 87.4145 41.8477C89.7036 41.8477 91.5629 43.7071 91.5629 45.9961C91.5629 48.2852 89.7035 50.1445 87.4145 50.1445C85.4536 50.1445 83.8051 48.7851 83.3754 46.9531H50.7464V45.0312V45.0391ZM12.2344 41.211C12.043 40.7227 12.2852 40.1602 12.7852 39.9727C13.2735 39.7813 13.836 40.0235 14.0235 40.5235C14.1251 40.7852 14.3321 41.0938 14.6251 41.4219C15.5743 42.4727 17.3165 43.5703 19.5235 44.1407C21.754 44.7188 24.4532 44.7501 27.2735 43.6524C28.9024 43.0235 30.5743 42.0118 32.2344 40.5118C32.625 40.1603 33.2344 40.1915 33.586 40.5821C33.9376 40.9728 33.9063 41.5822 33.5157 41.9338C31.6759 43.594 29.7969 44.7229 27.9571 45.4338C24.7188 46.6955 21.6055 46.6526 19.0352 45.9845C16.4336 45.3127 14.3555 43.9845 13.1954 42.6954C12.7462 42.2072 12.4258 41.6954 12.2344 41.2071L12.2344 41.211ZM38.8865 14.031C38.6755 13.5427 38.906 12.9802 39.3982 12.781C39.8865 12.5701 40.449 12.8005 40.6482 13.2927C41.6169 15.5544 41.2888 18.4646 39.9685 21.0544C38.7576 23.445 36.7302 25.4958 34.2185 26.5739C31.5271 27.7223 28.2185 27.8044 24.5896 25.9528C24.1208 25.7145 23.9294 25.1325 24.1677 24.6637C24.406 24.195 24.988 24.0036 25.4568 24.2419C28.5154 25.8005 31.2576 25.7536 33.4685 24.8004C35.5701 23.902 37.2497 22.1793 38.2576 20.1715C39.3279 18.0699 39.617 15.7496 38.8787 14.0309L38.8865 14.031ZM33.6755 63.328C32.2458 68.5389 33.5154 73.43 33.5154 73.449C33.6443 73.9607 33.3357 74.4802 32.8162 74.6092C32.2966 74.7382 31.785 74.4295 31.656 73.91C31.656 73.8904 30.6365 69.9881 31.3044 65.3397C30.156 65.9881 28.8942 66.4178 27.6442 66.6795C24.6247 67.3201 21.613 66.9998 20.363 66.5388C19.863 66.3592 19.613 65.8084 19.7927 65.3083C19.9724 64.8083 20.5232 64.5583 21.0232 64.738C22.0427 65.1169 24.6013 65.3669 27.242 64.7966C28.9217 64.4373 30.6014 63.7458 31.8904 62.5466C32.8201 59.3747 34.7107 56.1482 38.3006 53.7263C38.742 53.4373 39.3318 53.5466 39.6287 53.9881C39.9178 54.4295 39.8084 55.0193 39.367 55.3162C36.1756 57.4646 34.5076 60.367 33.6561 63.3162L33.6755 63.328ZM39.7341 92C42.2653 91.9805 44.5349 90.9492 46.1755 89.3086C47.8669 87.6094 48.824 85.3398 48.824 82.9375V10.2815C48.824 7.5432 47.7459 4.9417 45.8045 3.012C43.9451 1.1526 41.3748 0.000299692 38.535 0.000299692C35.6952 0.000299692 33.1247 1.1487 31.2654 3.012C29.406 4.8714 28.2537 7.4417 28.2537 10.2815C28.2537 12.3127 28.8436 14.2698 29.9451 15.9417C30.2342 16.3831 30.117 16.9729 29.6756 17.2698C29.2342 17.5589 28.6444 17.4417 28.3475 17.0003C26.6991 14.512 26.0272 11.5003 26.4569 8.53147C25.0975 8.47288 23.7655 8.64085 22.5077 9.01194C20.8983 9.48069 19.3983 10.2814 18.1093 11.3517C17.6992 11.6916 17.3203 12.051 16.9609 12.4415C14.8711 14.6915 13.7695 17.5509 13.6914 20.4415C13.5899 23.9298 14.9805 27.3321 17.6016 29.7696C17.9922 30.129 18.0118 30.7306 17.6524 31.1212C17.293 31.5119 16.6915 31.5314 16.3008 31.172C13.9297 28.9728 12.4297 26.0822 11.9492 22.9806C8.6094 24.1017 5.7187 26.1994 3.6211 28.9415C1.3516 31.9024 0 35.6017 0 39.6135C0 44.4533 1.9609 48.844 5.1406 52.0235C8.3125 55.1954 12.6992 57.1641 17.5506 57.1641C18.0819 57.1641 18.5115 57.5938 18.5115 58.1251C18.5115 58.6563 18.0819 59.086 17.5506 59.086C14.91 59.086 12.4022 58.5547 10.1014 57.6055C9.81234 58.8672 9.73031 60.1563 9.83968 61.4258C9.98812 63.0469 10.4608 64.6446 11.2499 66.0977C12.0897 67.6485 13.2499 68.9961 14.6483 70.0469C16.0272 71.0781 17.6288 71.8281 19.3671 72.1953C19.8476 72.2969 20.1679 72.7344 20.1171 73.2148C20.078 74.7343 20.3866 76.1836 20.9569 77.5039C21.5663 78.8828 22.4764 80.1055 23.5975 81.082C25.5663 82.7812 28.0584 83.6132 30.5389 83.5117C32.9881 83.4219 35.41 82.4336 37.2772 80.5703C37.6483 80.1992 38.2577 80.1992 38.6366 80.5703C39.0077 80.9414 39.0077 81.5508 38.6366 81.9297C36.496 84.0703 33.7382 85.2305 30.9178 85.4102C31.4178 87.1602 32.4295 88.6914 33.7694 89.8399C35.4296 91.2618 37.5077 92.0313 39.7186 92.0313L39.7341 92ZM59.8431 92C62.1322 92 63.9915 90.1406 63.9915 87.8516C63.9915 85.8907 62.6321 84.2422 60.8001 83.8125V69.3905C60.8001 68.8593 60.3705 68.4296 59.8392 68.4296H50.7376V70.3515H58.8782V83.8125C57.0501 84.2422 55.6868 85.8906 55.6868 87.8516C55.6868 90.1407 57.5462 92 59.8352 92L59.8431 92ZM81.7341 77.801C79.445 77.801 77.5857 75.9416 77.5857 73.6526C77.5857 72.8128 77.8357 72.0315 78.2654 71.3831L66.1874 58.6641H50.7574V56.7422H66.5974C66.8982 56.7422 67.156 56.8828 67.3357 57.0938L79.6557 70.0628C80.2651 69.7034 80.9838 69.5042 81.7455 69.5042C84.0346 69.5042 85.8939 71.3636 85.8939 73.6526C85.8939 75.9417 84.0345 77.801 81.7455 77.801L81.7341 77.801ZM59.8431 0C62.1322 0 63.9915 1.8594 63.9915 4.1484C63.9915 6.1093 62.6321 7.7578 60.8001 8.1875V22.6095C60.8001 23.1407 60.3705 23.5704 59.8392 23.5704H50.7376V21.6485H58.8782V8.18754C57.0501 7.75785 55.6868 6.10944 55.6868 4.14844C55.6868 1.85934 57.5462 3.98159e-05 59.8352 3.98159e-05L59.8431 0ZM81.7341 14.199C79.445 14.199 77.5857 16.0584 77.5857 18.3474C77.5857 19.1872 77.8357 19.9685 78.2654 20.6169L66.1874 33.3359H50.7574V35.2578H66.5974C66.8982 35.2578 67.156 35.1172 67.3357 34.9062L79.6557 21.9372C80.2651 22.2966 80.9838 22.4958 81.7455 22.4958C84.0346 22.4958 85.8939 20.6364 85.8939 18.3474C85.8939 16.0583 84.0345 14.199 81.7455 14.199L81.7341 14.199Z" fill="currentColor"></path></svg>