<svg xmlns="http://www.w3.org/2000/svg" width="89" height="92" viewBox="0 0 89 92" fill="none"><path d="M88.2494 82.813C87.7611 76.2974 83.2806 70.915 77.3314 68.989C79.9525 67.3718 81.7064 64.4695 81.7064 61.1687C81.7064 56.1062 77.5853 51.9851 72.5228 51.9851C67.4564 51.9851 63.3392 56.1062 63.3392 61.1687C63.3392 64.4695 65.0892 67.364 67.7064 68.9851C63.8431 70.2312 60.558 72.946 58.6126 76.5867C56.1048 73.9265 52.8782 71.9539 49.2728 70.9773C52.9916 69.0906 55.5501 65.2312 55.5501 60.7863C55.5501 54.4894 50.4251 49.3643 44.1281 49.3643C37.8311 49.3643 32.7061 54.4893 32.7061 60.7863C32.7061 65.2355 35.2647 69.0949 38.9834 70.9773C35.3779 71.9539 32.1514 73.9265 29.6436 76.5867C27.6983 72.9461 24.4131 70.2312 20.5498 68.9851C23.167 67.364 24.917 64.4695 24.917 61.1687C24.917 56.1062 20.7959 51.9851 15.7334 51.9851C10.667 51.9851 6.54982 56.1062 6.54982 61.1687C6.54982 64.4695 8.30372 67.3679 10.9248 68.989C4.97952 70.9148 0.494824 76.3015 0.00682439 82.817C-0.0439566 83.4928 0.190415 84.1647 0.651355 84.6568C1.11229 85.1529 1.76075 85.4341 2.44045 85.4341H24.8035C24.5417 86.4966 24.362 87.5903 24.2761 88.7114C24.2175 89.4693 24.4792 90.2192 24.9949 90.77C25.5066 91.3247 26.2371 91.6411 26.9949 91.6411H61.2679C62.0257 91.6411 62.7562 91.3247 63.2679 90.77C63.7796 90.2154 64.0413 89.4653 63.9866 88.7114C63.9007 87.5903 63.7249 86.4966 63.4593 85.4341H85.8223C86.502 85.4341 87.1504 85.149 87.6114 84.6568C88.0723 84.1607 88.3028 83.4927 88.2559 82.813H88.2494ZM72.5224 54.856C76.0029 54.856 78.831 57.6841 78.831 61.1646C78.831 64.6451 75.999 67.4732 72.5224 67.4732C69.0419 67.4732 66.2138 64.6451 66.2138 61.1646C66.2138 57.6841 69.0419 54.856 72.5224 54.856ZM35.5814 60.7818C35.5814 56.067 39.4173 52.2349 44.1283 52.2349C48.8431 52.2349 52.6752 56.0708 52.6752 60.7818C52.6752 65.4966 48.8393 69.3287 44.1283 69.3287C39.4135 69.3287 35.5814 65.4928 35.5814 60.7818ZM15.7334 54.856C19.2139 54.856 22.042 57.6841 22.042 61.1646C22.042 64.6451 19.2139 67.4732 15.7334 67.4732C12.2529 67.4732 9.42482 64.6451 9.42482 61.1646C9.42482 57.6841 12.2529 54.856 15.7334 54.856ZM2.91742 82.559C3.64398 76.0942 9.18302 71.098 15.7334 71.098C20.9522 71.098 25.6514 74.2738 27.6434 79.0707C26.9051 80.1605 26.2684 81.3285 25.7528 82.5551L2.91742 82.559ZM27.1514 88.766C27.8936 80.0043 35.3155 73.168 44.1284 73.168C52.937 73.168 60.3624 80.0078 61.1054 88.766H27.1514ZM62.5034 82.559C61.9878 81.3285 61.3511 80.1645 60.6128 79.0746C62.6089 74.2777 67.3042 71.1019 72.5228 71.1019C79.0736 71.1019 84.6168 76.098 85.3388 82.5629H62.5028L62.5034 82.559ZM42.6914 9.418V1.4375C42.6914 0.64453 43.336 0 44.1289 0C44.9219 0 45.5664 0.64453 45.5664 1.4375V9.418C45.5664 10.211 44.9219 10.8555 44.1289 10.8555C43.336 10.8555 42.6914 10.211 42.6914 9.418ZM23.4494 10.5977C22.8869 10.0352 22.8869 9.125 23.4494 8.5665C24.0119 8.004 24.9221 8.004 25.4806 8.5665L31.1251 14.211C31.6876 14.7735 31.6876 15.6837 31.1251 16.2422C30.8439 16.5234 30.4767 16.6641 30.1095 16.6641C29.7423 16.6641 29.3751 16.5235 29.0939 16.2422L23.4494 10.5977ZM14.8869 29.2457C14.8869 28.4527 15.5315 27.8082 16.3244 27.8082H24.3049C25.0979 27.8082 25.7424 28.4527 25.7424 29.2457C25.7424 30.0387 25.0979 30.6832 24.3049 30.6832H16.3244C15.5315 30.6832 14.8869 30.0387 14.8869 29.2457ZM57.1329 16.2417C56.5704 15.6792 56.5704 14.769 57.1329 14.2105L62.7774 8.566C63.3399 8.0035 64.2501 8.0035 64.8086 8.566C65.3711 9.1285 65.3711 10.0387 64.8086 10.5972L59.1641 16.2417C58.8829 16.5229 58.5157 16.6636 58.1485 16.6636C57.7813 16.6636 57.4141 16.523 57.1329 16.2417ZM63.9532 27.8037H71.9337C72.7267 27.8037 73.3712 28.4482 73.3712 29.2412C73.3712 30.0342 72.7267 30.6787 71.9337 30.6787H63.9532C63.1603 30.6787 62.5157 30.0342 62.5157 29.2412C62.5157 28.4482 63.1603 27.8037 63.9532 27.8037ZM29.2652 24.4131C29.0855 24.9639 29.2535 25.5654 29.6949 25.9443L36.4176 31.749L34.3903 40.3974C34.2575 40.9599 34.4763 41.5497 34.945 41.8896C35.4138 42.2294 36.0388 42.2568 36.5348 41.956L44.1325 37.3544L51.7302 41.956C51.9607 42.0966 52.2185 42.163 52.4763 42.163C52.7732 42.163 53.07 42.0693 53.32 41.8896C53.7888 41.5498 54.0075 40.9599 53.8747 40.3974L51.8474 31.749L58.5701 25.9443C59.0076 25.5654 59.1756 24.9638 58.9998 24.4131C58.8201 23.8623 58.3279 23.4717 57.7537 23.4248L48.9021 22.6826L45.4607 14.4951C45.2381 13.9639 44.7146 13.6162 44.1365 13.6162C43.5584 13.6162 43.0349 13.9639 42.8123 14.4951L39.3709 22.6826L30.5193 23.4248C29.9412 23.4717 29.4529 23.8623 29.2732 24.4131L29.2652 24.4131ZM40.4682 25.4717C40.9995 25.4248 41.4643 25.0889 41.6713 24.5967L44.1244 18.7569L46.5775 24.5967C46.7846 25.0889 47.2494 25.4287 47.7806 25.4717L54.0931 26.0029L49.3001 30.1396C48.8939 30.4912 48.7181 31.0342 48.8392 31.5537L50.2845 37.7178L44.8665 34.4366C44.636 34.296 44.3782 34.2296 44.1204 34.2296C43.8626 34.2296 43.6048 34.2999 43.3743 34.4366L37.9563 37.7178L39.4016 31.5537C39.5227 31.0342 39.3469 30.4873 38.9407 30.1396L34.1477 26.0029L40.4602 25.4717H40.4682Z" fill="#016DF0"></path></svg>