<svg xmlns="http://www.w3.org/2000/svg" width="94" height="94" viewBox="0 0 94 94" fill="none"><path d="M37.6303 30.8802H36.1108C35.2476 30.8802 34.5483 31.5795 34.5483 32.4427C34.5483 33.306 35.2476 34.0052 36.1108 34.0052H57.6418C58.5051 34.0052 59.2043 33.306 59.2043 32.4427C59.2043 31.5795 58.5051 30.8802 57.6418 30.8802H56.1184C56.3958 29.1146 57.1145 27.5208 58.2473 26.3177C60.9895 23.4115 62.4973 19.6107 62.4973 15.6227C62.4973 11.1852 60.5989 6.94305 57.2903 3.97775C53.9856 1.01685 49.5442 -0.393353 45.0953 0.0949473C40.8219 0.567607 36.8765 2.86445 34.2753 6.39575C33.7636 7.09106 33.9121 8.06765 34.6074 8.57935C35.2988 9.08716 36.2793 8.94263 36.791 8.24732C38.8769 5.41532 42.0293 3.57542 45.4394 3.20042C49.041 2.79417 52.5214 3.89964 55.205 6.30592C57.8534 8.67702 59.3691 12.0715 59.3691 15.6223C59.3691 18.8137 58.1621 21.8528 55.9707 24.177C54.2949 25.9504 53.2402 28.302 52.9355 30.884H48.4355V23.3293L52.7402 19.052C53.3534 18.4426 53.3534 17.4543 52.748 16.8411C52.1347 16.2278 51.1503 16.2239 50.5371 16.8333L46.873 20.4739L43.2089 16.8333C42.5956 16.2278 41.6112 16.2278 40.998 16.8411C40.3925 17.4544 40.3925 18.4427 41.0058 19.052L45.3105 23.3293V30.884H40.8066C40.498 28.3059 39.4394 25.9504 37.7636 24.1652C35.2558 21.4972 34.0488 17.8644 34.455 14.1925C34.5487 13.3331 33.9316 12.5636 33.0722 12.4659C32.2128 12.38 31.4433 12.9894 31.3495 13.8487C30.8417 18.4307 32.3534 22.9698 35.4901 26.3057C36.6268 27.5166 37.3491 29.1185 37.6303 30.8802Z" fill="#016DF0"></path><path d="M57.6423 36.0781H36.1113C35.248 36.0781 34.5488 36.7773 34.5488 37.6406C34.5488 38.5039 35.248 39.2031 36.1113 39.2031H37.959C38.7051 43.3437 42.3028 46.4687 46.6074 46.4687H47.1465C51.4863 46.4687 55.0606 43.3554 55.7988 39.2031H57.6426C58.5059 39.2031 59.2051 38.5039 59.2051 37.6406C59.2051 36.7773 58.5056 36.0781 57.6423 36.0781ZM47.1423 43.3437H46.6033C44.0135 43.3437 41.8103 41.5976 41.1267 39.2031H52.6107C51.931 41.6054 49.7474 43.3437 47.138 43.3437H47.1423Z" fill="#016DF0"></path><path d="M64.7043 15.9766C64.7043 16.8398 65.4036 17.5391 66.2668 17.5391H70.427C71.2903 17.5391 71.9895 16.8398 71.9895 15.9766C71.9895 15.1133 71.2903 14.4141 70.427 14.4141H66.2668C65.4036 14.4141 64.7043 15.1133 64.7043 15.9766Z" fill="#016DF0"></path><path d="M63.7901 25.5916L67.5635 27.3494C67.7783 27.4509 68.001 27.4978 68.2237 27.4978C68.8135 27.4978 69.376 27.1658 69.6417 26.5955C70.0049 25.8142 69.669 24.8846 68.8878 24.5213L65.1144 22.7635C64.3331 22.4002 63.4034 22.7361 63.0362 23.5213C62.673 24.3025 63.0089 25.2322 63.7902 25.5955L63.7901 25.5916Z" fill="#016DF0"></path><path d="M64.4542 9.34483C64.6768 9.34483 64.8995 9.29795 65.1143 9.19639L68.8877 7.43859C69.669 7.07531 70.0088 6.14559 69.6416 5.36439C69.2745 4.58319 68.3447 4.24329 67.5635 4.60658L63.7901 6.36438C63.0089 6.72766 62.669 7.65738 63.0362 8.43858C63.3019 9.00889 63.8644 9.34092 64.4542 9.34092L64.4542 9.34483Z" fill="#016DF0"></path><path d="M23.3213 17.5469H27.4815C28.3448 17.5469 29.044 16.8477 29.044 15.9844C29.044 15.1211 28.3448 14.4219 27.4815 14.4219H23.3213C22.458 14.4219 21.7588 15.1211 21.7588 15.9844C21.7588 16.8477 22.458 17.5469 23.3213 17.5469Z" fill="#016DF0"></path><path d="M28.6422 22.7596L24.8688 24.5174C24.0875 24.8806 23.7477 25.8104 24.1148 26.5916C24.3805 27.1619 24.943 27.4939 25.5328 27.4939C25.7555 27.4939 25.9782 27.447 26.193 27.3455L29.9664 25.5877C30.7477 25.2244 31.0875 24.2947 30.7203 23.5135C30.357 22.7283 29.4273 22.3924 28.6422 22.7557L28.6422 22.7596Z" fill="#016DF0"></path><path d="M24.8682 7.44313L28.6416 9.20093C28.8565 9.30249 29.0791 9.34937 29.3018 9.34937C29.8916 9.34937 30.4541 9.01734 30.7198 8.44703C31.0831 7.66578 30.7471 6.73613 29.9659 6.37283L26.1925 4.61503C25.4112 4.25175 24.4816 4.58768 24.1144 5.37284C23.7511 6.15409 24.087 7.08374 24.8683 7.44704L24.8682 7.44313Z" fill="#016DF0"></path><path d="M44.0672 58.4016C43.3094 57.9914 42.3602 58.2766 41.95 59.0344L40.1727 62.3235C39.2313 64.0657 37.9422 65.5696 36.3329 66.804C35.9462 67.1008 35.7196 67.5579 35.7196 68.0462V89.0622C35.7196 89.9254 35.0204 90.6247 34.1571 90.6247H16.2901C15.4268 90.6247 14.7276 89.9254 14.7276 89.0622V80.113C14.7276 77.4646 12.669 75.9802 10.6338 75.8825C8.3721 75.7692 6.5244 77.3239 6.3057 79.57C6.29788 79.6637 6.26663 79.9489 6.25101 89.0622C6.25101 89.9254 5.55179 90.6247 4.68851 90.6247C3.82523 90.6247 3.12601 89.9254 3.12601 89.0622V80.6481C3.12601 72.8942 9.43461 66.5861 17.188 66.5861H27.797C31.8243 66.5861 35.5118 64.3869 37.422 60.8439L41.1486 53.9455C41.5588 53.1877 41.2736 52.2385 40.5158 51.8283C39.758 51.4181 38.8088 51.7033 38.3986 52.4611L34.672 59.3595C33.3048 61.8907 30.672 63.4611 27.797 63.4611H17.188C7.7114 63.4611 0 71.172 0 80.6491V89.0632C0 91.6491 2.1016 93.7507 4.6875 93.7507C7.2734 93.7507 9.375 91.6491 9.375 89.0671C9.38281 85.7273 9.39453 80.2624 9.41406 79.8796C9.49219 79.0788 10.125 78.989 10.4805 79.0046C10.668 79.0124 11.6016 79.11 11.6016 80.114V89.0632C11.6016 91.6491 13.7032 93.7507 16.2891 93.7507H34.1601C36.746 93.7507 38.8476 91.6491 38.8476 89.0632V68.7972C40.5273 67.391 41.8945 65.7191 42.9218 63.8128L44.6991 60.5237C45.1092 59.7659 44.8241 58.8167 44.0663 58.4065L44.0672 58.4016Z" fill="#016DF0"></path><path d="M23.5283 60.5312C28.6963 60.5312 32.9033 56.3243 32.9033 51.1562C32.9033 45.9882 28.6963 41.7812 23.5283 41.7812C18.3603 41.7812 14.1533 45.9882 14.1533 51.1562C14.1533 56.3243 18.3603 60.5312 23.5283 60.5312ZM23.5283 44.9062C26.9736 44.9062 29.7783 47.7109 29.7783 51.1562C29.7783 54.6016 26.9736 57.4062 23.5283 57.4062C20.083 57.4062 17.2783 54.6016 17.2783 51.1562C17.2783 47.7109 20.083 44.9062 23.5283 44.9062Z" fill="#016DF0"></path><path d="M76.5643 63.4617H65.9553C63.0803 63.4617 60.4436 61.8914 59.0803 59.3601L53.6936 49.3835C53.2835 48.6257 52.3342 48.3405 51.5764 48.7507C50.8147 49.1609 50.5334 50.1101 50.9436 50.8679L56.3303 60.8445C58.2405 64.3875 61.928 66.5867 65.9553 66.5867H76.5643C84.3182 66.5867 90.6263 72.8953 90.6263 80.6487V89.0628C90.6263 89.9261 89.9271 90.6253 89.0638 90.6253C88.2005 90.6253 87.5013 89.9261 87.5013 89.0589C87.4857 79.9456 87.4584 79.6605 87.4466 79.5706C87.2279 77.3206 85.388 75.7776 83.1185 75.8792C81.0833 75.9768 79.0247 77.4651 79.0247 80.1097V89.0589C79.0247 89.9222 78.3255 90.6214 77.4622 90.6214H59.5912C58.728 90.6214 58.0287 89.9222 58.0287 89.0589V68.0429C58.0287 67.5585 57.8022 67.0976 57.4155 66.8007C55.8061 65.5702 54.5171 64.0624 53.5757 62.3202L46.3413 48.9142C45.9311 48.1564 44.9819 47.8712 44.2241 48.2814C43.4623 48.6915 43.1811 49.6369 43.5912 50.3986L50.8256 63.8046C51.8529 65.7108 53.224 67.3827 54.8998 68.789V89.055C54.8998 91.6409 57.0015 93.7425 59.5874 93.7425H77.4583C80.0442 93.7425 82.1458 91.6409 82.1458 89.055V80.1058C82.1458 79.1019 83.0794 79.0042 83.2669 78.9964C83.6224 78.9769 84.2552 79.0706 84.3255 79.8206C84.3451 80.2581 84.3607 85.719 84.3685 89.0589C84.3685 91.6448 86.4701 93.7464 89.056 93.7464C91.6419 93.7464 93.7435 91.6448 93.7435 89.0589V80.6448C93.7435 71.1682 86.0326 63.4568 76.5555 63.4568L76.5643 63.4617Z" fill="#016DF0"></path><path d="M60.8452 51.1562C60.8452 56.3243 65.0522 60.5312 70.2202 60.5312C75.3882 60.5312 79.5952 56.3243 79.5952 51.1562C79.5952 45.9882 75.3882 41.7812 70.2202 41.7812C65.0522 41.7812 60.8452 45.9882 60.8452 51.1562ZM76.4702 51.1562C76.4702 54.6016 73.6655 57.4062 70.2202 57.4062C66.7749 57.4062 63.9702 54.6016 63.9702 51.1562C63.9702 47.7109 66.7749 44.9062 70.2202 44.9062C73.6655 44.9062 76.4702 47.7109 76.4702 51.1562Z" fill="#016DF0"></path></svg>