<svg xmlns="http://www.w3.org/2000/svg" width="75" height="84" viewBox="0 0 75 84" fill="none"><path d="M36.8661 61.6279H37.3895C40.034 61.6358 42.4637 60.1513 43.659 57.7881C45.0184 57.7335 46.2176 56.8741 46.702 55.6006C47.1903 54.3272 46.8739 52.8897 45.8973 51.9365C46.5457 51.2881 46.9051 50.4053 46.8973 49.4873C46.909 48.3428 46.3426 47.2646 45.3895 46.6279C45.6434 46.2608 45.9442 45.9248 46.2762 45.6279C50.5223 41.8388 51.9832 35.8193 49.9559 30.5029C47.9286 25.1865 42.827 21.6748 37.1399 21.6748C31.4485 21.6748 26.3469 25.1865 24.3199 30.5029C22.2929 35.8193 23.7535 41.8389 27.9996 45.6279C28.3238 45.9287 28.6168 46.2647 28.8668 46.6279C28.0074 47.1983 27.4488 48.1279 27.3512 49.1591C27.2536 50.1864 27.6286 51.206 28.3668 51.9286C27.3942 52.8779 27.0777 54.3153 27.5621 55.5848C28.0465 56.8582 29.2379 57.7176 30.5973 57.7762C31.7926 60.1434 34.2177 61.6357 36.8661 61.6279ZM37.3856 59.6279H36.8661C35.3231 59.6436 33.8544 58.96 32.8661 57.7685H41.3075C40.3426 58.9365 38.9052 59.6201 37.3895 59.6279H37.3856ZM43.495 50.917H30.757C29.9445 50.917 29.2882 50.2608 29.2882 49.4482C29.2882 48.6357 29.9444 47.9794 30.757 47.9794H43.499C44.3115 47.9794 44.9678 48.6357 44.9678 49.4482C44.9678 50.2608 44.3115 50.917 43.499 50.917H43.495ZM33.128 39.116C32.2999 38.7567 31.7608 37.9402 31.7569 37.0379C31.7999 36.6903 32.0928 36.4325 32.4444 36.4325C32.792 36.4325 33.085 36.6903 33.128 37.0379L33.128 39.116ZM39.2374 46.0379H35.0499V41.2488H39.2101L39.2374 46.0379ZM25.3584 35.1159C25.5146 28.9753 30.3545 23.9789 36.4874 23.6279C41.4757 23.3506 46.0968 26.2568 48.0074 30.8701C49.9176 35.4873 48.7027 40.8076 44.9801 44.1401C44.3668 44.6831 43.8434 45.3237 43.4371 46.0385H41.1285V41.1596C43.0621 40.73 44.4371 39.019 44.4371 37.0385C44.3512 35.6479 43.1988 34.5619 41.8043 34.5619C40.4098 34.5619 39.2535 35.6478 39.1676 37.0385V39.3002H35.0504V37.0385C34.9645 35.6479 33.8082 34.5619 32.4137 34.5619C31.0192 34.5619 29.8629 35.6478 29.777 37.0385C29.7887 39.0268 31.1832 40.7377 33.1286 41.1479V46.0385H30.8083C30.4138 45.3315 29.9059 44.6947 29.3005 44.1596C26.7302 41.8627 25.2881 38.5612 25.3584 35.1159ZM41.1674 39.1159V37.0378C41.1674 36.6628 41.4721 36.3582 41.8471 36.3582C42.2221 36.3582 42.5268 36.6628 42.5268 37.0378C42.5229 37.9441 41.9682 38.7566 41.1284 39.0964L41.1674 39.1159ZM29.2884 54.3459C29.2884 53.5334 29.9446 52.8771 30.7572 52.8771H43.4992C44.3117 52.8771 44.968 53.5334 44.968 54.3459C44.968 55.1585 44.3117 55.8186 43.4992 55.8186H30.7572C30.3666 55.8186 29.9955 55.6624 29.7181 55.3851C29.4447 55.1116 29.2884 54.7366 29.2884 54.3459ZM49.7884 11.2478C51.0892 11.783 52.3548 12.404 53.5775 13.1072L53.6869 13.1658C54.8822 13.8573 56.0307 14.6267 57.1283 15.4666C58.558 16.5604 59.8978 17.7713 61.1283 19.0877C58.4564 21.6619 57.9838 25.7713 60.0033 28.8846C62.0267 31.9979 65.9681 33.244 69.4095 31.8534C72.8509 30.4628 74.8236 26.8261 74.1126 23.1854C73.4016 19.5409 70.2103 16.912 66.4993 16.9159C65.1673 16.912 63.8548 17.2597 62.6985 17.9159C60.3274 15.3612 57.593 13.1698 54.5774 11.4159L54.468 11.3652C53.2024 10.6425 51.8899 10.0019 50.5383 9.44716C50.0422 9.25185 49.4758 9.47841 49.2571 9.96669C49.0618 10.4667 49.2962 11.033 49.7884 11.2478ZM72.3084 24.6779C72.3084 27.0256 70.8943 29.1467 68.7225 30.0451C66.5506 30.9436 64.0506 30.4475 62.3905 28.7873C60.7303 27.1232 60.2303 24.6232 61.1327 22.4553C62.0311 20.2834 64.1483 18.8655 66.4999 18.8655C68.039 18.8655 69.5194 19.4788 70.6054 20.5686C71.6952 21.6584 72.3084 23.1349 72.3084 24.6779ZM57.1284 67.7869C56.0346 68.6229 54.8901 69.3924 53.6987 70.0877C53.6557 70.1034 53.6167 70.1229 53.5776 70.1463C52.3549 70.8495 51.0893 71.4705 49.7885 72.0057C48.1244 72.6971 46.4057 73.2362 44.6479 73.6268C43.6596 69.6659 39.7651 67.1502 35.7456 67.8807C31.7261 68.6073 28.9644 72.3338 29.4292 76.3885C29.8979 80.4471 33.4331 83.4471 37.5112 83.244C41.5893 83.0448 44.8159 79.7088 44.8784 75.6268C46.8159 75.1932 48.7104 74.5877 50.5386 73.8182C51.8863 73.2635 53.1948 72.619 54.4566 71.8963L54.5777 71.8456C55.8746 71.0956 57.1207 70.2597 58.3082 69.3456C58.5816 69.2206 58.7847 68.9745 58.8551 68.6815C58.9293 68.3885 58.8629 68.0799 58.6832 67.8377C58.4996 67.5956 58.2183 67.451 57.9176 67.4432C57.6168 67.4315 57.3276 67.5604 57.1284 67.7869ZM37.1284 81.3379C34.7768 81.3419 32.6557 79.9277 31.7534 77.7559C30.8511 75.5841 31.3471 73.0801 33.0112 71.42C34.6714 69.7559 37.1753 69.2598 39.3471 70.1622C41.5189 71.0646 42.933 73.1856 42.9291 75.5372C42.9291 78.7403 40.3315 81.3379 37.1284 81.3379ZM16.5384 15.6269C16.7493 15.623 16.9564 15.5566 17.1282 15.4277C18.222 14.5879 19.3665 13.8222 20.5579 13.1269C20.597 13.1113 20.6361 13.0918 20.6673 13.0683C21.8939 12.3691 23.1634 11.748 24.4681 11.205C26.1322 10.5331 27.8509 10.0019 29.6087 9.62693C30.597 13.5878 34.4915 16.1035 38.511 15.373C42.5305 14.6465 45.2922 10.9199 44.8274 6.86523C44.3587 2.80663 40.8235 -0.193372 36.7454 0.00972797C32.6673 0.208948 29.4407 3.54493 29.3782 7.62693C27.4407 8.06052 25.5462 8.66603 23.718 9.43553C22.3703 9.99022 21.0618 10.6347 19.8 11.3574L19.6789 11.4082C18.382 12.1582 17.1359 12.9941 15.9484 13.9082C15.6632 14.1777 15.5656 14.5879 15.6906 14.9551C15.8195 15.3262 16.1478 15.5879 16.5384 15.6269ZM37.1284 1.91594C39.48 1.91204 41.6011 3.32614 42.5034 5.49794C43.4057 7.66974 42.9096 10.1737 41.2456 11.8338C39.5854 13.4979 37.0815 13.994 34.9097 13.0916C32.7379 12.1892 31.3238 10.0682 31.3277 7.71664C31.3277 4.51354 33.9253 1.91594 37.1284 1.91594ZM24.4684 72.0059C23.1637 71.4669 21.8942 70.8457 20.6676 70.1465L20.566 70.088H20.5699C19.3746 69.3965 18.2261 68.6271 17.1285 67.7872C15.6988 66.6934 14.359 65.4825 13.1285 64.1661C15.8004 61.5919 16.273 57.4824 14.2535 54.3691C12.2301 51.2558 8.28873 50.0097 4.84733 51.4003C1.40593 52.7909 -0.566765 56.4276 0.144235 60.0683C0.855175 63.7128 4.04654 66.3418 7.75753 66.3379C9.08953 66.3418 10.402 65.9941 11.5583 65.3379C13.9294 67.8926 16.6638 70.084 19.6794 71.8379L19.7888 71.8886C21.0544 72.6113 22.3669 73.2519 23.7185 73.8066C23.8357 73.8613 23.9607 73.8887 24.0896 73.8887C24.4802 73.8809 24.8318 73.6465 24.988 73.2871C25.1873 72.791 24.9567 72.2246 24.4684 72.0059ZM1.94839 58.6269C1.94839 56.2753 3.36249 54.1581 5.53429 53.2597C7.70619 52.3613 10.2062 52.8574 11.8663 54.5175C13.5265 56.1816 14.0265 58.6777 13.1241 60.8495C12.2256 63.0214 10.1085 64.4354 7.75689 64.4354C4.54989 64.4354 1.94839 61.8339 1.94839 58.6269ZM3.79999 31.3889C3.21405 33.2795 2.79219 35.2209 2.53829 37.1858C2.12423 40.1741 2.12423 43.2014 2.53829 46.1858C2.61251 46.6819 3.03829 47.0413 3.53829 47.0374H3.67891C4.20235 46.9515 4.56953 46.4671 4.50703 45.9358C4.13594 43.1272 4.13594 40.2796 4.50703 37.467C4.74141 35.6818 5.12031 33.9201 5.63983 32.1975C9.56953 33.3381 13.714 31.2248 15.1007 27.3733C16.4874 23.5178 14.6398 19.2522 10.8859 17.6233C7.12813 15.9944 2.74923 17.5686 0.889829 21.2131C-0.973471 24.8615 0.315609 29.3264 3.83903 31.4161L3.79999 31.3889ZM7.79999 18.9199V18.916C10.1477 18.916 12.2648 20.334 13.1672 22.5019C14.0656 24.6738 13.5695 27.1738 11.9055 28.8339C10.2453 30.498 7.74529 30.9941 5.57349 30.0956C3.40549 29.1972 1.98759 27.0761 1.98759 24.7284C1.97587 23.1854 2.57743 21.7011 3.65949 20.5995C4.74149 19.5018 6.21419 18.8768 7.75719 18.8651L7.79999 18.9199ZM70.499 51.9709V51.967C71.0849 50.0725 71.5029 48.1311 71.7568 46.1662C72.1748 43.1818 72.1748 40.1545 71.7568 37.1662C71.788 36.8615 71.6748 36.5647 71.456 36.3498C71.2373 36.1389 70.9326 36.0412 70.6279 36.0803C70.3271 36.1194 70.0576 36.299 69.9013 36.5608C69.7451 36.8225 69.7177 37.1428 69.8271 37.428C70.2021 40.2366 70.2021 43.0882 69.8271 45.8968C69.5927 47.682 69.2138 49.4437 68.6982 51.1663C64.7646 50.0257 60.624 52.1389 59.2373 55.9905C57.8506 59.846 59.6943 64.1116 63.4521 65.7405C67.2099 67.3694 71.5849 65.799 73.4482 62.1507C75.3115 58.5023 74.0185 54.0374 70.499 51.9477L70.499 51.9709ZM66.499 64.4399V64.436C64.1474 64.436 62.0302 63.0219 61.1318 60.8501C60.2295 58.6782 60.7294 56.1821 62.3896 54.5181C64.0498 52.8579 66.5498 52.3619 68.7216 53.2603C70.8935 54.1588 72.3075 56.2759 72.3075 58.6275C72.2801 61.815 69.6864 64.3892 66.4989 64.3892L66.499 64.4399Z" fill="#016DF0"></path></svg>